<?xml version="1.0" encoding="utf-8"?>
<!-- Generator: Adobe Illustrator 20.0.0, SVG Export Plug-In . SVG Version: 6.00 Build 0)  -->
<svg version="1.1" xmlns="http://www.w3.org/2000/svg" xmlns:xlink="http://www.w3.org/1999/xlink" x="0px" y="0px"
	 viewBox="0 0 604.2 604.2" style="enable-background:new 0 0 604.2 604.2;" xml:space="preserve">
<style type="text/css">
	.st0{fill:#FFFFFF;}
	.st1{fill:#FAFCFE;}
	.st2{fill:#FFFFFF;stroke:#010101;stroke-width:2;stroke-miterlimit:10;}
	.st3{fill:#FBF9FB;stroke:#010101;stroke-width:2;stroke-miterlimit:10;}
	.st4{fill:#D3D3D3;stroke:#010101;stroke-width:2;stroke-miterlimit:10;}
	.st5{fill:#090909;stroke:#010101;stroke-width:2;stroke-miterlimit:10;}
	.st6{fill:#030303;stroke:#010101;stroke-width:2;stroke-miterlimit:10;}
	.st7{fill:#010101;}
	.st8{fill:#020202;}
	.st9{fill:#090909;}
	.st10{fill:none;stroke:#FAFCFE;stroke-width:4;stroke-miterlimit:10;}
</style>
<g id="Layer_1">
	<g id="r6sTgB.tif">
		<g>
			<path d="M82.8,99.1c3.4,11.1,6.4,22.2,10.1,33.1c8.1,23.6,18.8,45.9,34.9,65.2c7.8,9.3,16.6,17.4,27.4,23.3
				c3,1.6,4.6,1.2,6.5-1.7c14.4-22.2,31.3-42.1,52.2-58.4c31.6-24.6,67.3-36.3,107.4-33.2c21.3,1.7,41.3,8,60.8,17.2
				c18.9,8.9,38.5,16.2,57.9,24c1.3,0.5,3,0,4.5-0.3c6-1.3,12-2.8,17.9-4.2c7.1-1.7,13.6-0.3,19.9,3c14.9,7.8,29,16.9,41.6,28.1
				c5.6,4.9,6.3,8.1,2.8,14.7c-1.2,2.3-1.3,4-0.2,6.3c7.8,16.6,15.4,33.2,23.2,49.8c1.6,3.3,0.8,6.2-2.2,7.1
				c-9.3,2.9-17,8.6-25.3,13.2c-6.1,3.4-10.7,1.7-15.2-3.5c-3.8-4.4-8.1-4.8-13.3-1.3c-4.2,2.8-8.3,5.7-12.8,7.9
				c-3.3,1.6-7.1,2.5-10.7,2.8c-5.7,0.5-10.2-2.8-12.3-8.3c-3.9-10.4-8.5-20.7-11.2-31.5c-2.1-8.4-1.9-17.3-2.7-26
				c-0.2-1.6-0.4-3.2-1.6-4.7c-0.8,8.1-1.6,16.2-2.4,24.3c-7.8,0-15-0.5-22,0.2c-4.3,0.4-8.5,2.5-12.5,4.3
				c-6.5,2.9-10.5,7.6-12.6,15.1c-3.5,12.7-8,25.1-13,37.2c-2.3,5.5-6.2,10.6-10.2,15.2c-23.5,26.8-40.5,56.8-46.1,92.5
				c-0.5,3.2-0.6,6.6-0.7,9.9c-0.3,7.6,1,13.7,9.1,17.5c6,2.8,11,7.7,16.4,11.7c2.9,2.1,3,4.5,1.6,7.5c-2.1,4.5-5,8.5-10.3,8.7
				c-8.6,0.4-17.2,0.4-25.7-0.2c-6.3-0.5-11.1-4.3-14.3-9.8c-1.4-2.3-2.9-4.7-4.8-6.5c-3.2-3.2-4.5-6.7-4.1-11.2
				c2.9-34.9,7-69.6,15.5-103.5c2.7-10.8,6.1-21.4,6.1-32.8c0-5.3-1.6-9.7-5-13.7c-13.7-15.9-29.1-29.7-46.6-41.2
				c-1-0.7-2.1-1.3-3.9-1.2c7,7.1,13.8,14.3,20.9,21.2c6.8,6.6,13.7,13.1,20.8,19.4c3.8,3.4,4.8,7.4,5.1,12.2
				c1.5,22-6.3,41.6-16.5,60c-7.4,13.3-16.9,25.6-26.1,37.9c-3.5,4.7-4.7,9.2-4,14.7c1.6,11.7,6,21.7,16.7,28.1
				c4.9,3,9.3,6.7,14.1,9.9c3.6,2.4,4.3,5.3,2.9,9.2c-1.3,3.9-3.5,6.7-7.8,6.7c-7.6,0-15.2-0.7-22.8-0.2
				c-10.7,0.6-15.6-5.2-19.8-14.1c-4.4-9.3-10.8-17.6-15.6-26.7c-4.6-8.8-8.4-18.1-12.4-27.3c-1.8-4.2-0.9-7.8,2.9-10.6
				c4.6-3.5,9.2-6.9,13.5-10.7c6.7-5.8,11.2-13,12.3-22c0.8-6.7-1.3-12.8-6.2-17.1c-5.8-5-12-9.9-18.8-13.3
				c-11.4-5.6-23.4-10.1-35.2-14.9c-15.7-6.4-26.9-17-30.5-34c-1.3-5.9-0.8-12.2-1.4-18.3c-0.2-1.8-0.7-4-1.9-5.1
				c-35.3-34.3-55.6-76.6-66.1-124.1c-0.5-2.4-0.8-4.8-1.5-7.1C77.3,111.8,78.8,105.3,82.8,99.1z M510.2,216.3
				c0.2,3.1,0.8,6.3,4.4,6.3c3.9,0,4.5-3.3,4.5-6.5c0-3.1-0.8-6.2-4.3-6.3C511,209.8,510.5,213.2,510.2,216.3z"/>
			<path d="M142.4,425c1.6-6.3,5.6-10,10.7-9.9c5,0,8.8,3.5,10.6,9.6c6.7,1.4,10,5.3,10,12.3c0,2.2,0.4,3.5,2.6,4.7
				c4.1,2.3,5.6,7.2,4.3,12c-1.2,4.4-5,7.4-9.9,7.5c-11.5,0.1-22.9,0.1-34.4,0c-5.2,0-9.2-3.1-10.5-7.9c-1.2-4.6,0.8-8.9,4.9-11.8
				c1.1-0.8,1.8-2.6,1.9-4.1C133.3,430.3,135.7,427,142.4,425z"/>
			<path class="st0" d="M510.2,216.3c0.2-3.1,0.7-6.5,4.6-6.5c3.5,0,4.3,3.2,4.3,6.3c0,3.2-0.6,6.5-4.5,6.5
				C511,222.6,510.5,219.4,510.2,216.3z"/>
		</g>
	</g>
</g>
<g id="Layer_2">
</g>
</svg>
