<?xml version="1.0" encoding="utf-8"?>
<!-- Generator: Adobe Illustrator 20.0.0, SVG Export Plug-In . SVG Version: 6.00 Build 0)  -->
<svg version="1.1" xmlns="http://www.w3.org/2000/svg" xmlns:xlink="http://www.w3.org/1999/xlink" x="0px" y="0px"
	 viewBox="0 0 604.2 604.2" style="enable-background:new 0 0 604.2 604.2;" xml:space="preserve">
<style type="text/css">
	.st0{fill:#FFFFFF;}
	.st1{fill:#FAFCFE;}
	.st2{fill:#FFFFFF;stroke:#010101;stroke-width:2;stroke-miterlimit:10;}
	.st3{fill:#FBF9FB;stroke:#010101;stroke-width:2;stroke-miterlimit:10;}
	.st4{fill:#D3D3D3;stroke:#010101;stroke-width:2;stroke-miterlimit:10;}
	.st5{fill:#090909;stroke:#010101;stroke-width:2;stroke-miterlimit:10;}
	.st6{fill:#030303;stroke:#010101;stroke-width:2;stroke-miterlimit:10;}
	.st7{fill:#010101;}
	.st8{fill:#020202;}
	.st9{fill:#090909;}
	.st10{fill:none;stroke:#FAFCFE;stroke-width:4;stroke-miterlimit:10;}
</style>
<g id="Layer_1">
</g>
<g id="Layer_2">
	<g id="A95wgH.tif">
		<g>
			<path d="M134.1,18.2c127.8,0,255.6,0,383.4,0c0.7,0.3,1.3,0.7,2,0.8c12.5,2.2,21.4,10.9,23.2,22.7c1.8,12.1-4.4,23.4-16,28.7
				c-2.8,1.2-2.9,2.9-2.9,5.2c0,22.8,0,45.6,0,68.4c0,1.2,0.1,2.3,0.2,3.4c19.9,8.7,24.3,25.7,11.7,45c9.6,12.6,9.9,25.4-0.1,38
				c9.7,12.8,9.9,25.5,0,38.1c9.7,12.9,9.9,25.6,0,38.1c9.8,13.6,9.8,23.9,0.1,38c9.5,12.6,10,25.3,0,37.9c14.5,19,5.2,38.8-11.9,45
				c0,1.3,0,2.6,0,4c0,22.5,0.1,45-0.1,67.5c0,3,0.8,4.4,3.6,5.7c16.7,7.9,20.8,29.1,8.4,42.7c-6.3,6.9-14.3,8.9-23.3,8.9
				c-124.8-0.1-249.6,0-374.4,0c-1.5,0-3,0-4.5-0.1c-13.5-1.2-23.2-9.7-25.5-22.3c-2.3-12.1,4.2-23.7,16-29.7
				c1.3-0.7,2.6-2.8,2.7-4.2c0.2-8.9,0.1-17.8,0.1-26.7c0-15.2,0-30.5,0-45.7c-9.4-3.6-15.8-9.7-18.3-19.4c-2.5-9.7,0.7-18,6.5-25.5
				c-9.8-13.5-9.8-22.4-0.1-38.2c-9.9-12.6-9.6-25.3,0.2-37.9c-4.6-5.8-7.4-11.9-7.3-19.2c0-7.3,3.3-13.3,7.3-18.8
				c-9.8-13.6-9.8-22.7-0.1-38.2c-9.8-12.6-9.7-25.3,0.1-37.9c-13.4-16.9-7.4-37.6,11.8-45.1c0-23.5-0.1-47,0.1-70.6
				c0-3.4-0.7-5.3-4.1-6.8c-10.4-4.8-16-15.4-15-27.1c0.9-10.5,8.6-19.7,19.2-22.8C129.4,19.2,131.7,18.8,134.1,18.2z M189.3,287.4
				c-0.1,74.8,61.2,136.1,136,136.1c74.7,0,135.7-60.9,135.9-135.7c0.3-74.7-60.9-136.1-135.8-136.3
				C250.7,151.3,189.4,212.5,189.3,287.4z M507.3,429c-1-0.1-1.7-0.2-2.5-0.2c-40.3,0-80.7,0-121,0c-1.3,0-2.7,0.3-3.9,0.8
				c-36.4,13.7-72.8,13.7-109.2,0c-1.5-0.6-3.2-0.8-4.8-0.8c-39.4,0-78.8,0-118.3,0c-1.4,0-2.9,0.1-4.2,0.2c0,24.6,0,48.9,0,73
				c121.4,0,242.5,0,363.9,0C507.3,477.8,507.3,453.6,507.3,429z M143.5,72.9c0,24.5,0,48.8,0,73c0.8,0.1,1.2,0.2,1.7,0.2
				c40.5,0,81,0,121.4,0c1.5,0,3-0.4,4.4-0.9c36.3-13.5,72.5-13.6,108.8,0c1.6,0.6,3.5,0.9,5.3,0.9c39.1,0,78.2,0,117.4,0
				c1.6,0,3.2,0,5,0c0-24.6,0-48.7,0-73.1 M324.9,56.3c62.2,0,124.5,0,186.7,0c1.5,0,3,0.1,4.5-0.1c6-0.5,10.6-5.4,10.5-11.1
				c-0.1-5.5-4.6-10.1-10.4-10.6c-1.3-0.1-2.7,0-4.1,0c-124.5,0-248.9,0-373.4,0c-9.2,0-14.7,4.2-14.5,11.1
				c0.2,6.8,5.4,10.7,14.5,10.7C200.7,56.3,262.8,56.3,324.9,56.3z M138.6,518.6c-1.2,0-2.4-0.1-3.6,0c-6.1,0.4-10.7,5-10.9,10.7
				c-0.1,5.8,4.7,10.7,10.9,11.1c1.4,0.1,2.7,0,4.1,0c62.1,0,124.2,0,186.3,0c62.2,0,124.5,0,186.7,0c9.1,0,14.3-3.9,14.5-10.7
				c0.2-6.9-5.3-11.1-14.6-11.1 M413.3,162.5c7.7,6.9,14.9,13.5,22.2,20c0.9,0.8,2.3,1.6,3.5,1.6c25.5,0.1,51.1,0.1,76.6,0
				c4.6,0,8.1-2.4,10-6.6c3.3-7.5-2.2-15-11.3-15.1c-32.8,0-65.6,0-98.3,0C415.1,162.3,414.3,162.4,413.3,162.5z M413.2,412.5
				c34.4,0,68.4,0.1,102.5-0.1c6.2,0,11-5.3,10.8-11.1c-0.2-5.8-5-10.6-11.4-10.6c-25.2-0.1-50.4-0.1-75.6,0c-1.2,0-2.8,0.3-3.7,1.1
				C428.4,398.6,421,405.4,413.2,412.5z M237.4,412.6c-7.9-7.2-15.4-14-22.9-20.8c-0.7-0.6-1.9-0.9-2.9-0.9c-25.5,0-51.1-0.1-76.6,0
				c-4.6,0-8.1,2.4-10,6.7c-3.4,7.7,2.4,15.1,11.7,15.1c32.5,0,65,0,97.4,0C235.2,412.6,236.2,412.6,237.4,412.6z M237.2,162.5
				c-0.6-0.1-1.1-0.1-1.7-0.1c-33.2,0-66.5,0-99.7,0c-6.7,0-11.6,4.6-11.8,10.7c-0.1,6.1,4.9,11.1,11.8,11.1c25.1,0.1,50.1,0,75.2,0
				c1.1,0,2.5-0.2,3.3-0.9C222.1,176.4,229.6,169.5,237.2,162.5z M199.8,374.5c-4-7.2-7.7-13.7-11.5-20.1c-0.5-0.9-2.2-1.6-3.3-1.6
				c-16.6-0.1-33.2-0.2-49.8,0c-6.3,0.1-11.1,5-11.1,10.8c0,5.8,4.8,10.8,11.1,10.8C156.5,374.6,177.8,374.5,199.8,374.5z
				 M450.8,200.4c4.1,7.2,7.6,13.7,11.5,19.9c0.6,1.1,2.7,1.8,4,1.8c16,0.1,32,0.1,48,0.1c7.2,0,12.4-4.8,12.3-11.1
				c-0.2-6.2-5.2-10.6-12.2-10.7c-7.4-0.1-14.8,0-22.2,0C478.5,200.4,465,200.4,450.8,200.4z M451.1,374.4c22,0,43.7,0.2,65.4-0.1
				c5.8-0.1,10.1-5.5,10-10.9c-0.1-5.8-5-10.6-11.3-10.7c-16.5-0.1-32.9-0.1-49.4,0.1c-1.3,0-3.1,1.1-3.8,2.2
				C458.4,361.1,455,367.5,451.1,374.4z M199.5,200.4c-21.9,0-43.4-0.1-65,0.1c-6,0.1-10.6,5.4-10.4,11c0.2,5.8,5,10.6,11.4,10.6
				c16.4,0.1,32.9,0.1,49.3,0c1.2,0,3-0.8,3.5-1.8C192.1,214,195.6,207.5,199.5,200.4z M469.8,336.4c15.6,0,31,0.2,46.4-0.1
				c6-0.1,10.5-5.5,10.3-11.1c-0.2-5.7-4.9-10.3-11-10.5c-5.6-0.2-11.2,0-16.7,0c-7.9,0-15.9,0-23.5,0
				C473.4,322.1,471.7,329.1,469.8,336.4z M469.8,238.5c1.9,7.4,3.7,14.5,5.5,21.7c13.6,0,27.2,0.2,40.8-0.1c6-0.1,10.6-5.4,10.5-11
				c-0.1-5.5-4.6-10.5-10.4-10.6C500.8,238.4,485.4,238.5,469.8,238.5z M180.8,238.5c-15.6,0-31-0.2-46.3,0.1
				c-5.8,0.1-10.2,5.1-10.4,10.6c-0.1,5.6,4.5,10.6,10.5,11c3.6,0.2,7.2,0.1,10.9,0.1c10.1,0,20.1,0,29.9,0
				C177.2,252.8,179,245.8,180.8,238.5z M175.3,314.6c-13.6,0-27-0.1-40.4,0.1c-6,0.1-10.7,5-10.8,10.7c-0.1,5.4,4.3,10.8,10,10.9
				c15.5,0.3,31,0.1,46.7,0.1C178.9,329,177.2,322,175.3,314.6z M477.6,298.3c13.1,0,25.9,0.2,38.7-0.1c6-0.1,10.5-5.5,10.3-11.1
				c-0.2-5.7-4.9-10.4-10.9-10.5c-6.9-0.2-13.9-0.1-20.8-0.1c-5.7,0-11.4,0-17.3,0C477.6,283.9,477.6,290.8,477.6,298.3z
				 M173.2,276.6c-12.3,0-24.3,0-36.3,0c-7.6,0-12.9,4.6-12.8,11c0.1,6.3,5.2,10.7,12.6,10.8c11,0,22,0,33,0c1.1,0,2.3-0.2,3.5-0.3
				C173.2,290.9,173.2,284.1,173.2,276.6z"/>
			<path class="st0" d="M138.6,56.3c-9.1,0-14.3-3.9-14.5-10.7c-0.2-6.9,5.3-11.1,14.5-11.1c124.5,0,248.9,0,373.4,0
				c1.4,0,2.7-0.1,4.1,0c5.8,0.5,10.3,5.1,10.4,10.6c0.1,5.6-4.4,10.5-10.5,11.1c-1.5,0.1-3,0.1-4.5,0.1"/>
			<path class="st0" d="M525.6,177.4c-1.9,4.3-5.4,6.6-10,6.6c-25.5,0.1-51.1,0.1-76.6,0c-1.2,0-2.6-0.7-3.5-1.6
				c-7.3-6.5-14.6-13.1-22.2-20c1,0,1.8-0.1,2.7-0.1"/>
			<path class="st0" d="M211.6,390.8c1,0,2.2,0.3,2.9,0.9c7.6,6.8,15.1,13.7,22.9,20.8c-1.2,0-2.2,0-3.2,0c-32.5,0-65,0-97.4,0
				c-9.4,0-15.1-7.4-11.7-15.1c1.9-4.3,5.4-6.6,10-6.7"/>
			<path class="st0" d="M235.6,162.3c0.5,0,1.1,0.1,1.7,0.1c-7.7,7-15.2,13.9-22.8,20.7c-0.8,0.7-2.2,0.9-3.3,0.9
				c-25.1,0.1-50.2,0.1-75.2,0c-6.9,0-12-4.9-11.8-11.1c0.1-6,5.1-10.6,11.8-10.7"/>
			<path class="st0" d="M185,352.8c1.1,0,2.8,0.7,3.3,1.6c3.8,6.4,7.5,13,11.5,20.1c-22.1,0-43.3,0.1-64.6,0
				c-6.3,0-11.1-5-11.1-10.8c0-5.8,4.8-10.8,11.1-10.8"/>
			<path class="st0" d="M526.6,211.1c0.2,6.3-5,11.1-12.3,11.1c-16,0.1-32,0.1-48-0.1c-1.4,0-3.4-0.7-4-1.8
				c-3.8-6.3-7.4-12.7-11.5-19.9c14.2,0,27.8,0,41.3,0"/>
			<path class="st0" d="M451.1,374.4c3.9-6.9,7.3-13.3,11-19.5c0.7-1.1,2.5-2.1,3.8-2.2c16.5-0.1,32.9-0.2,49.4-0.1
				c6.3,0,11.2,4.8,11.3,10.7c0.1,5.5-4.3,10.9-10,10.9"/>
			<path class="st0" d="M199.5,200.4c-3.9,7-7.4,13.5-11.1,19.9c-0.6,1-2.3,1.8-3.5,1.8c-16.4,0.1-32.9,0.2-49.3,0
				c-6.4,0-11.2-4.8-11.4-10.6c-0.2-5.6,4.4-11,10.4-11"/>
			<path class="st0" d="M469.8,336.4c1.8-7.3,3.6-14.2,5.5-21.7c7.6,0,15.6,0,23.5,0c5.6,0,11.2-0.1,16.7,0
				c6.1,0.2,10.7,4.9,11,10.5"/>
			<path class="st0" d="M526.6,249.2c0.1,5.6-4.5,10.9-10.5,11c-13.5,0.3-27.1,0.1-40.8,0.1c-1.8-7.3-3.6-14.3-5.5-21.7"/>
			<path class="st0" d="M134.6,260.2c-6-0.4-10.6-5.4-10.5-11c0.1-5.5,4.6-10.5,10.4-10.6"/>
			<path class="st0" d="M180.8,238.5c-1.8,7.3-3.6,14.3-5.5,21.7"/>
			<path class="st0" d="M526.6,287.1c0.2,5.6-4.4,10.9-10.3,11.1c-12.8,0.3-25.6,0.1-38.7,0.1c0-7.5,0-14.4,0-21.7
				c5.9,0,11.6,0,17.3,0"/>
			<path class="st0" d="M173.2,276.6c0,7.6,0,14.3,0,21.4c-1.2,0.1-2.4,0.3-3.5,0.3c-11,0-22,0-33,0c-7.3,0-12.5-4.5-12.6-10.8"/>
			<path d="M246.6,287.4c-5.9-6.2-9.6-13.3-10-21.8c-0.7-15.2,9.8-29.2,24.3-32.4c15.3-3.4,30.2,4,36.2,18.5
				c1.3,3.2,2.9,4.1,6.3,4.1c15.2-0.2,30.5-0.1,45.8,0c2.5,0,3.9-0.4,4.9-3.2c4.8-12.6,14.4-19.3,27.5-20.1
				c12.6-0.8,22.7,4.6,29.1,15.6c6.6,11.4,5.9,22.7-1.3,33.7c-1.2,1.9-2.7,3.6-4.2,5.6c10.5,11.9,13.7,25,5.5,39.4
				c-6.3,11.1-16.5,16.4-29.1,15.6c-14.4-0.9-23.8-9.3-28.7-23.2c-6.7,0-13.7,0-20.6,0c-10,0-19.9,0-29.9,0c-2.3,0-3.6,0.4-4.6,3
				c-5,13.1-15.1,20-28.8,20.3c-13.4,0.4-23.7-6-29.3-18.3c-5.7-12.4-3.7-24.1,5.1-34.5C245.3,288.9,245.9,288.3,246.6,287.4z
				 M325.3,302.7c10.3,0,20.5,0,30.8,0c9.6,0,11.1,1.3,12.6,10.8c1.3,8.5,9.3,13.8,18.1,12.1c8-1.5,13.4-10.2,11.3-18.2
				c-1.9-7.3-6.7-11-15.2-11.8c-3.8-0.4-6.6-2.2-7.8-5.9c-1.1-3.6-0.1-6.7,3-8.7c1.6-1.1,3.9-1.4,5.9-1.7
				c8.8-1.2,14.4-7.8,13.9-16.5c-0.4-7.6-6.9-13.6-14.7-13.7c-8.4-0.1-14.6,5.7-15.4,14.5c-0.5,5.9-3.5,8.6-9.9,8.7
				c-21.4,0-42.9,0-64.3,0c-7.9,0-10-1.9-10.9-9.9c-1-8.1-7.9-13.7-16.1-13.2c-8,0.5-13.9,6.8-14,14.9c0,8.6,5.7,14.4,15.1,15.3
				c3.9,0.4,6.5,2.2,7.7,5.9c1.1,3.6,0,6.7-3.1,8.7c-1.5,1-3.6,1.4-5.5,1.7c-8.9,1.1-14.6,7.4-14.3,16.2c0.3,7.9,6.8,14,14.8,14.1
				c8.4,0.1,14.6-5.8,15.3-14.6c0.5-5.8,3.4-8.5,9.5-8.6C303.3,302.6,314.3,302.7,325.3,302.7z"/>
			<path class="st0" d="M282.8,302.3c-0.8,8.8-6.9,23.7-15.3,23.6c-8-0.1-14.5-6.2-14.8-14.1c-0.3-8.8,5.3-15.1,14.3-16.2
				c1.9-0.2,3.9-0.7,5.5-1.7c3.1-2,4.2-5.2,3.1-8.7c-1.1-3.7-3.7-5.6-7.7-5.9c-9.4-0.9-15.1-6.7-15.1-15.3c0-8.1,6-14.4,14-14.9
				c8.2-0.5,15.1,5.2,16.1,13.2c1,8,3.1,9.9,10.9,9.9c21.4,0,42.9,0,64.3,0c6.4,0,9.4-2.7,9.9-8.7c0.7-8.8,7-14.6,15.4-14.5
				c7.8,0.1,14.3,6.1,14.7,13.7c0.5,8.8-5.1,15.3-13.9,16.5c-2,0.3-4.3,0.6-5.9,1.7c-3.1,2-4.1,5.2-3,8.7c1.2,3.7,3.9,5.5,7.8,5.9
				c8.5,0.8,13.3,4.5,15.2,11.8c2.1,8-3.3,16.7-11.3,18.2c-8.8,1.7-16.8-3.6-18.1-12.1c-1.5-9.5-3-10.8-12.6-10.8
				c-10.3,0-20.5,0-30.8,0"/>
		</g>
	</g>
</g>
</svg>
