<?xml version="1.0" encoding="utf-8"?>
<!-- Generator: Adobe Illustrator 20.0.0, SVG Export Plug-In . SVG Version: 6.00 Build 0)  -->
<svg version="1.1" xmlns="http://www.w3.org/2000/svg" xmlns:xlink="http://www.w3.org/1999/xlink" x="0px" y="0px"
	 viewBox="0 0 604.2 604.2" style="enable-background:new 0 0 604.2 604.2;" xml:space="preserve">
<style type="text/css">
	.st0{fill:#FFFFFF;}
	.st1{fill:#FAFCFE;}
	.st2{fill:#FFFFFF;stroke:#010101;stroke-width:2;stroke-miterlimit:10;}
	.st3{fill:#FBF9FB;stroke:#010101;stroke-width:2;stroke-miterlimit:10;}
	.st4{fill:#D3D3D3;stroke:#010101;stroke-width:2;stroke-miterlimit:10;}
	.st5{fill:#090909;stroke:#010101;stroke-width:2;stroke-miterlimit:10;}
	.st6{fill:#030303;stroke:#010101;stroke-width:2;stroke-miterlimit:10;}
	.st7{fill:#010101;}
	.st8{fill:#020202;}
	.st9{fill:#090909;}
	.st10{fill:none;stroke:#FAFCFE;stroke-width:4;stroke-miterlimit:10;}
</style>
<g id="Layer_1">
</g>
<g id="Layer_2">
	<g id="Lcnaui.tif">
		<g>
			<path d="M311.5,10.2c8.4,1,16.8,1.8,25.2,3c47.9,6.6,91,24.9,128.7,54.9c53.4,42.4,87.4,97.2,98.5,164.5
				c15.4,93.8-11.7,174.9-79.8,241.4c-40.1,39.1-88.8,62.2-144.1,71C203.9,566.6,70.6,477.2,38.5,343C4.1,199,89.6,56.3,233,19.1
				c16-4.2,32.7-5.3,49.1-7.9c1.8-0.3,3.6-0.6,5.4-0.9C295.5,10.2,303.5,10.2,311.5,10.2z M299.5,33.4
				C164.2,33.5,53.7,144,53.7,279.2C53.7,414.5,164.3,525,299.5,525c135.2,0,245.8-110.6,245.8-245.8
				C545.2,143.9,434.7,33.4,299.5,33.4z"/>
			<path d="M299.3,419.2c-17.8,0.2-35.6-0.5-53-4.9c-36-9.2-54.3-33.3-52.4-70.3c2-37.6,17.9-68.6,47.7-91.7
				c38.2-29.6,87.8-26.9,123.6,6.4c24.6,22.9,38.5,51.3,39.9,84.9c1.6,36.9-14.6,62.7-55.8,71.3c-16.3,3.4-33.3,3.9-49.9,5.7
				C299.4,420.1,299.3,419.6,299.3,419.2z"/>
			<path d="M386.6,165.5c0,23-18.7,41.7-41.6,41.6c-22.9-0.1-41.4-18.8-41.4-41.8c0-23,18.7-41.6,41.6-41.6
				C368.2,123.8,386.6,142.4,386.6,165.5z"/>
			<path d="M292.8,165.4c0,23-18.7,41.7-41.6,41.7c-22.8,0-41.6-18.8-41.6-41.7c0-22.9,18.7-41.6,41.6-41.7
				C274.2,123.7,292.8,142.4,292.8,165.4z"/>
			<path d="M428.5,226.7c0,17-14.2,31.2-31.2,31.2c-17,0-31.2-14.1-31.3-31.1c-0.1-17.2,14.3-31.6,31.5-31.4
				C414.5,195.5,428.5,209.7,428.5,226.7z"/>
			<path d="M230.4,226.5c0.1,16.9-13.9,31.2-31,31.5c-17,0.3-31.7-14.3-31.6-31.4c0.1-17,14.3-31.2,31.3-31.2
				C216,195.3,230.3,209.5,230.4,226.5z"/>
		</g>
	</g>
</g>
</svg>
