<svg id="Layer_1" data-name="Layer 1" xmlns="http://www.w3.org/2000/svg" viewBox="0 0 47.8 47.8"><defs><style>.cls-1{fill:#fff;}</style></defs><title>bone2</title><g id="bone"><g id="Layer_1-2" data-name="Layer 1"><path class="cls-1" d="M26,40.89a7.55,7.55,0,0,1,1-3.77L12.38,22.49a7.65,7.65,0,0,1-3.77,1A7.8,7.8,0,0,1,7.85,7.93a7.8,7.8,0,0,1,15.56.76,7.65,7.65,0,0,1-1,3.77L37.06,27.09a7.65,7.65,0,0,1,3.77-1,7.8,7.8,0,0,1,.76,15.56A7.8,7.8,0,0,1,26,40.89Zm14.43-2.23a2.23,2.23,0,0,0,.36,0,4.81,4.81,0,1,0,0-9.62,4.72,4.72,0,0,0-3,1.09l-1,.85L18.49,12.74l.85-1a4.8,4.8,0,1,0-8.53-3,2.23,2.23,0,0,0,0,.36l.27,2.12L9,10.91a2.86,2.86,0,0,0-.41,0,4.81,4.81,0,1,0,3,8.52l1-.85L31,36.85l-.85,1a4.71,4.71,0,0,0-1.1,3,4.81,4.81,0,0,0,9.62,0,3.13,3.13,0,0,0,0-.42l-.27-2.08Z" transform="translate(-0.81 -0.89)"/></g></g></svg>