<?xml version="1.0" encoding="utf-8"?>
<!-- Generator: Adobe Illustrator 20.0.0, SVG Export Plug-In . SVG Version: 6.00 Build 0)  -->
<svg version="1.1" xmlns="http://www.w3.org/2000/svg" xmlns:xlink="http://www.w3.org/1999/xlink" x="0px" y="0px"
	 viewBox="0 0 604.2 604.2" style="enable-background:new 0 0 604.2 604.2;" xml:space="preserve">
<style type="text/css">
	.st0{fill:#FFFFFF;}
	.st1{fill:#FAFCFE;}
	.st2{fill:#FFFFFF;stroke:#010101;stroke-width:2;stroke-miterlimit:10;}
	.st3{fill:#FBF9FB;stroke:#010101;stroke-width:2;stroke-miterlimit:10;}
	.st4{fill:#D3D3D3;stroke:#010101;stroke-width:2;stroke-miterlimit:10;}
	.st5{fill:#090909;stroke:#010101;stroke-width:2;stroke-miterlimit:10;}
	.st6{fill:#030303;stroke:#010101;stroke-width:2;stroke-miterlimit:10;}
	.st7{fill:#010101;}
	.st8{fill:#020202;}
	.st9{fill:#090909;}
	.st10{fill:none;stroke:#FAFCFE;stroke-width:4;stroke-miterlimit:10;}
</style>
<g id="Layer_1">
	<g id="HNp2Vr.tif">
		<g>
			<path d="M316.4,27.5c7.5,0.9,14.9,1.8,22.4,2.8c49.2,7,93.2,26.2,131.3,58c45.8,38.2,75.8,86.4,88.8,144.8
				c32,143.1-55.9,279.5-191.1,314.2C234.8,581.5,99.6,510.4,52.7,382c-13.1-36-18-73.3-14.8-111.6C46.5,165.5,114,77.8,213.3,42.5
				c22.2-7.9,45.1-12.7,68.7-14.1c1.4-0.1,2.7-0.6,4.1-0.9C296.2,27.5,306.3,27.5,316.4,27.5z M250.8,227.4
				c2.1-11.9,7-23.1,15.3-32.8c10.3-12.1,23.4-19.9,38.2-25.2c12.4-4.5,25.1-7.2,38.3-7.4c5,0,8.7,3.3,9.2,7.8
				c0.5,4.4-2.3,8-7.1,9.2c-1.4,0.3-2.8,0.7-4.2,0.8c-17.2,2-28,18.9-22.4,35.4c3.9,11.5,13.3,17.9,27.4,18.6
				c17.3,0.9,30.7,12.3,34.4,29.1c2.1,9.6,0.5,18.7-4.4,27.5c13.5,2.2,23.6,8.7,29.7,20.7c6.1,12.1,5.1,24.2-1.1,36.1
				c14.5,2.5,25,9.8,30.6,23.1c5.7,13.4,2.8,25.8-5,36.9c17.7,17.7,35,35,52.9,52.9c57.7-66.8,80.2-143.6,57.5-229.5
				C514.3,133,449.9,71.3,351.2,50.1c-82.3-17.7-155.4,5.2-217.9,59.8C172.8,149.4,211.8,188.4,250.8,227.4z M119.6,123.3
				c-59.8,70-81.9,149.9-54.7,238.7c30.6,100.1,100.8,158.9,204.2,174.2c76.2,11.3,143.1-12.7,200.9-63.8
				c-17.9-17.9-35.2-35.2-52.6-52.4c-1-1-3-1.4-4.5-1.2c-5.3,0.4-10.6,1.7-15.9,1.8c-27.3,0.2-54.6,0.1-81.9,0.1
				c-38.2,0-76.4,0.1-114.6-0.1c-16.4-0.1-30.2-11.3-34.5-26.8c-4.3-15.5,1.8-32.5,15.3-41c5-3.1,10.8-4.7,16.6-7.2
				c-5.9-11.1-6.8-23.1-1-35.2c6-12.2,16.3-18.6,29.5-20.8c-8.7-18.2-6.4-35.5,9.8-49.4C197.8,201.5,159.1,162.8,119.6,123.3z
				 M344.3,346.6c-13.5-13.5-26-25.9-38.5-38.3c-0.9-0.9-2.5-1.3-3.8-1.3c-23.8-0.1-47.6-0.2-71.4,0c-11.5,0.1-20.4,9.3-20.2,20.1
				c0.2,10.9,9.3,19.4,20.8,19.5c11.8,0,23.7,0,35.5,0c3.8,0,6.9,1.2,8.7,4.6c3.3,6.2-1.2,12.5-8.9,12.5c-21.1,0.1-42.3,0-63.4,0.1
				c-11.9,0.1-21,8.7-21.1,19.8c-0.1,11.2,9.2,19.9,21.4,19.9c64.2,0,128.4,0,192.6,0c1.3,0,2.6-0.2,4.6-0.3
				c-1.1-1.2-1.7-1.9-2.3-2.6c-11.8-11.8-23.6-23.7-35.5-35.4c-1-1-3.1-1.3-4.7-1.4c-10.7-0.1-21.4,0-32.2-0.1
				c-5.9,0-9.8-3.5-9.8-8.6c0-4.9,4.1-8.5,9.9-8.5C331.5,346.6,337.1,346.6,344.3,346.6z M302.9,189.5c-22,8.4-35,27.2-35.8,50.4
				c-0.1,3.4,0.7,5.8,3.2,8.3c31.8,31.6,63.5,63.2,95,95c3.4,3.5,6.8,4,11,3c9.7-2.3,16.7-11.5,15.8-20.7
				c-1-10.3-9.2-18.1-19.9-18.5c-8.8-0.3-17.7,0-26.5-0.1c-2,0-4.2-0.3-5.9-1.1c-3.6-1.9-5.2-5.2-4.2-9.1c1.1-4.5,4.3-6.6,9-6.9
				c13.6-0.9,22.3-13.7,18-26.1c-2.9-8.4-10.2-13.1-21.2-13.6c-18.3-0.8-33.8-12.7-39.3-30.3C299,209.8,299.6,199.9,302.9,189.5z
				 M249.7,253.1c-7.8,3.8-12.3,12.2-10.6,20.3c2,9.5,9.6,16.2,18.8,16.4c8.7,0.2,17.4,0.1,26,0c0.8,0,1.6-0.3,2-0.4
				C273.8,277.2,261.8,265.2,249.7,253.1z M388.1,364c9.8,9.9,19.6,20,29.4,29.9c7.2-12.8,0.1-27.8-14.7-29.8
				C397.7,363.4,392.5,364,388.1,364z"/>
			<path class="st0" d="M285.9,289.4c-0.4,0.1-1.2,0.4-2,0.4c-8.7,0-17.4,0.1-26,0c-9.2-0.2-16.8-6.9-18.8-16.4"/>
			<path class="st0" d="M388.1,364c4.5,0,9.7-0.6,14.7,0.1c14.8,2,22,17,14.7,29.8C407.7,384,397.9,373.9,388.1,364z"/>
		</g>
	</g>
</g>
<g id="Layer_2">
</g>
</svg>
