<?xml version="1.0" encoding="utf-8"?>
<!-- Generator: Adobe Illustrator 20.0.0, SVG Export Plug-In . SVG Version: 6.00 Build 0)  -->
<svg version="1.1" xmlns="http://www.w3.org/2000/svg" xmlns:xlink="http://www.w3.org/1999/xlink" x="0px" y="0px"
	 viewBox="0 0 604.2 604.2" style="enable-background:new 0 0 604.2 604.2;" xml:space="preserve">
<style type="text/css">
	.st0{fill:#FFFFFF;}
	.st1{fill:#FAFCFE;}
	.st2{fill:#FFFFFF;stroke:#010101;stroke-width:2;stroke-miterlimit:10;}
	.st3{fill:#FBF9FB;stroke:#010101;stroke-width:2;stroke-miterlimit:10;}
	.st4{fill:#D3D3D3;stroke:#010101;stroke-width:2;stroke-miterlimit:10;}
	.st5{fill:#090909;stroke:#010101;stroke-width:2;stroke-miterlimit:10;}
	.st6{fill:#030303;stroke:#010101;stroke-width:2;stroke-miterlimit:10;}
	.st7{fill:#010101;}
	.st8{fill:#020202;}
	.st9{fill:#090909;}
	.st10{fill:none;stroke:#FAFCFE;stroke-width:4;stroke-miterlimit:10;}
</style>
<g id="Layer_1">
</g>
<g id="Layer_2">
	<g id="Hjwe6Q.tif">
		<g>
			<path d="M597.8,424.2c-2.9,10.8-11.1,16.6-20.5,20.9c-15.2,7-31.4,10.1-48,9.8c-4.3-0.1-9.6-2.7-12.6-5.8
				c-4.8-4.9-8.6-11-11.8-17.1c-5.6-10.9-10.5-22.2-15.7-33.4c-8.2,3.7-16.3,8.1-24.9,11c-8.1,2.7-16.6,4.6-25.1,5.5
				c-7.2,0.8-12.1-3.5-14.7-10.4c-6.9-17.8-13.8-35.6-20.8-53.4c-0.6-1.5-1-3.3-2-4.5c-14.5-17.7-19-39.7-26.1-60.5
				c-4.3-12.7-7.8-25.7-11.8-39c-1.4,0.5-2.8,0.8-4.1,1.4c-33.9,16.6-67.7,33.4-101.6,49.9c-3.3,1.6-4.3,3.6-4.2,7.3
				c0.5,19.5,0.7,39,0.8,58.5c0,3.1-0.5,6.4-1.6,9.3c-3.8,9.5-3.8,19.5-4.4,29.4c-0.8,16-2,31.9-2.9,47.9
				c-0.6,10.8-6.3,18-15.7,22.5c-15.5,7.3-32,8.6-48.8,7.2c-1.5-0.1-3-0.4-4.5-0.6c-15.1-2-21.2-7.3-24-22.3
				c-3-16.3-5.2-32.8-7.7-49.5c-7.3,0.4-14.8,1.2-22.2,1c-10.6-0.3-21.2-1.2-31.8-2.2c-2.9-0.3-5.8-1.6-8.4-2.9c-6-3-9.2-7.9-9-14.9
				c0.5-14.7,1.3-29.3,1.5-44c0.1-7.2-0.1-14.7-1.7-21.7c-3.4-14.6-0.3-28.8,1.7-43.1c1.3-9.2,3.6-18.3,5-27.5
				c0.3-1.8-0.6-4.7-2-5.8c-11.8-9.7-21-21.2-27.3-35.2c-2.4-5.3-5.4-10.5-9.4-14.6c-4.1-4.3-9.3-8.4-14.8-10.4
				c-8.8-3.2-14.2-8.7-17.2-17.3c-4.2-12-4-24.3-2.7-36.6c2-19,6.7-37.4,16-54.2c3.8-6.9,8.8-13.3,14.2-19.1
				c5.5-6,13.1-8.2,21.1-6.3c17.7,4.1,35.2,3.4,52.9-0.3c9.6-2,19.5-2.5,29.3-2.8c57.5-1.6,114.9-3,172.4-4.5
				c2.3-0.1,4.6-0.5,6.9-0.7c18.3,0,36.7,0,55,0c1.4,0.3,2.9,0.7,4.3,0.9c11.5,1.7,23.2,2.7,34.5,5.3
				c54.4,12.4,95.5,42.1,119.9,93.2c24.1,50.3,41,103,52.1,157.6c2.7,13.3,4.6,26.9,5.9,40.4c1.1,11.7,0.4,23.5,1.4,35.2
				c0.9,10.2,3.2,20.3,4.9,30.4C597.8,413.6,597.8,418.9,597.8,424.2z M567.6,366.5c-4.1,2-7.8,3.8-11.6,5.5
				c-3.8,1.7-7.1,0.9-8.7-3.1c-1.6-3.9,0.6-6.2,4-7.9c4.3-2.2,8.6-4.4,12.7-6.9c1.3-0.8,2.7-2.4,2.8-3.7c0.5-5.1,1.2-10.4,0.5-15.4
				c-1.4-10.7-3.4-21.4-5.6-31.9c-11.4-52.8-27.5-104.1-51.8-152.5c-3.6-7.2-8.1-13.9-12.7-21.8c-2.7,5.2-4.7,9.1-6.9,13
				c-2,3.5-4.9,5.2-8.7,3c-3.5-2.1-3.6-5.2-1.8-8.7c2.2-4.3,4.2-8.7,6.6-12.9c1.9-3.4,1-5.6-1.6-8.2c-12.8-12.7-27.4-22.7-43.9-29.9
				c-26.2-11.5-53.6-16.6-82.1-16.1c-55.6,1-111.3,2.3-166.9,3.4c-11.3,0.2-22.6,0-33.9,0c0.3,0.8,0.6,1.7,0.8,2.5
				c-2.3,1.7-4.6,4.8-6.8,4.8c-2.6,0-5.1-2.9-7.6-4.5c0.2-0.7,0.3-1.5,0.5-2.2c-22.7,2.7-45.4,5.4-67.9,8
				c1.9,33.5-5.5,64.9-24.4,93.5c11,9.7,17.4,22.3,24,34.9c1.9,3.6,4.3,6.9,7,11.1c5.2-5.1,9.7-9.3,13.9-13.8c2.8-3,5.7-4.8,9.5-1.8
				c2.9,2.3,2.6,6-0.5,9.7c-4.1,4.7-8.3,9.4-12.7,14.2c9.7,8.5,20.1,17.7,30.7,27c2.3-2.7,4.5-5.4,6.9-7.9c2.4-2.5,5.1-4.8,7.8-7
				c3.8-3,7.6-2.9,9.6,0.2c2.3,3.6,1,6.4-2.1,9.1c-4,3.5-7.5,7.5-11.2,11.3c-2.1,2.1-2,3.9,0,6.4c3.2,4,6.8,8.2,8.3,13
				c3.9,12.6,7.6,25.5,9.9,38.5c2.8,15.7,4.2,31.7,6.2,47.5c0.9,6.6,2.2,7.7,8.8,8.3c4,0.4,8,0.8,11.9,0.9c4.1,0.1,6.9,1.5,7.1,5.9
				c0.2,3.8-2.6,6.1-7.5,6c-4.4-0.1-8.8-0.4-13.3-0.7c1,8.3,1.8,16,2.9,23.8c1.9,13.7,3.8,27.3,6.1,41c0.3,1.8,2.4,4.5,3.9,4.7
				c13,1.5,25.9,1.1,38.4-3.5c3.2-1.2,4.6-3.3,4.8-6.8c0.4-9.3,1.4-18.6,1.7-27.9c0.3-11.6,0.1-23.3,0.1-34.9
				c-3.1,0.6-6.9,1.4-10.8,2.1c-4.6,0.8-7.9-0.9-8.7-4.5c-0.8-3.5,1.8-6.2,6.5-7.2c4.6-0.9,9.1-2.1,13.6-3c4.1-0.8,5.8-3.3,5.9-7.3
				c0.1-10.7,0.4-21.3,0.2-32c-0.1-11.2-0.7-22.3-1.1-33.5c-0.3-7.1,2.1-12.4,8.8-15.9c9.8-5,19.2-10.6,28.9-15.7
				c34.7-18,69.5-35.9,106.4-49c7.5-2.7,16-4.8,23.7-4.1c7.4,0.6,12.9-1.5,18.4-5.1c2.5-1.6,5-3.3,7.4-5.1c3.3-2.6,6.5-3.5,9.6,0.1
				c2.6,3,1.6,6.4-2.7,9.6c-3.6,2.6-7.3,5.1-11.3,7.9c11.9,10,17.8,23.7,24.1,37c15.2,32,30.1,64.1,44.9,96.3
				c2.7,5.8,5.7,11.1,10.8,15.2c2.2,1.8,4.1,2.9,7,2.3c5.4-1.1,10.8-1.7,16.3-2.5c4-0.6,7.2,0.6,7.9,4.8c0.6,4.3-2.1,6.3-6.1,7
				c-5,0.8-10,1.6-16.3,2.7c7.4,15.3,14.5,30.1,21.8,44.8c0.6,1.3,2.8,2.6,4.2,2.5c12.7-0.7,25-3.1,36.5-9.1c3-1.6,3.8-3.8,3.4-6.9
				C571.9,399.1,569.8,382.9,567.6,366.5z M111.4,332.9c0-0.2,0.1-0.3,0.1-0.5c3.1-0.3,6.4-0.3,9.4-1c4.4-1.1,5.8-6.7,2.3-9.3
				c-1.7-1.2-4.3-1.5-6.5-1.7c-7.7-0.8-15.5-1.1-23.2-2.3c-4-0.6-7.2-0.5-8.5,3.7c-1.3,4.3,1.4,6.7,5.3,7.5
				C97.4,330.7,104.4,331.7,111.4,332.9z M414.5,341.8c11.1-3.1,21.2-5.7,31.2-8.8c3.2-1,4.3-4.3,2.8-6.9c-1-1.8-4.3-4-6.1-3.6
				c-9.9,2.1-19.6,4.8-29.3,7.5c-3.2,0.9-4.6,3.8-3.4,6.7C410.6,338.7,413,340.2,414.5,341.8z"/>
			<path class="st0" d="M597.8,408.2c-1.7-10.1-4-20.2-4.9-30.4c-1.1-11.7-0.3-23.6-1.4-35.2c-1.3-13.5-3.1-27.1-5.9-40.4
				c-11.1-54.6-28-107.3-52.1-157.6C509.1,93.5,468,63.8,413.6,51.4c-11.3-2.6-23-3.5-34.5-5.3c-1.5-0.2-2.9-0.6-4.3-0.9
				c74.3,0,148.5,0,223,0C597.8,166.2,597.8,287.2,597.8,408.2z"/>
			<path class="st0" d="M116.8,320.4c2.2,0.2,4.8,0.5,6.5,1.7c3.5,2.6,2.1,8.2-2.3,9.3c-3,0.8-6.3,0.7-9.4,1c0,0.2-0.1,0.3-0.1,0.5
				c-7-1.2-14.1-2.3-21-3.7c-3.9-0.8-6.5-3.2-5.3-7.5"/>
			<path class="st0" d="M442.4,322.4c1.8-0.4,5,1.8,6.1,3.6c1.5,2.6,0.4,6-2.8,6.9c-10,3-20,5.7-31.2,8.8c-1.6-1.6-3.9-3.1-4.7-5.1"
				/>
			<path d="M475.5,163.7c-1.2,2.4-1.8,4.2-2.9,5.6c-5.6,7-11.3,13.9-17,20.8c-2.5,3-5.5,4.4-9.1,1.6c-2.9-2.3-2.7-5.9,0.3-9.6
				c5.6-6.8,11-13.8,16.8-20.3c1.5-1.6,4.5-2.9,6.7-2.6C472.2,159.3,473.8,162,475.5,163.7z"/>
			<path d="M187.3,221.9c4.5,1,8.8,1.6,12.9,2.8c3.5,1,5.3,3.7,4.2,7.3c-1.1,3.6-4.1,5.1-7.5,3.9c-8-2.8-15.7-1.4-23.5,0.8
				c-5.1,1.4-8.4,0-9.1-3.9c-0.8-4.6,2.1-6.6,6.1-7.5C176.1,224.1,181.8,223,187.3,221.9z"/>
			<path d="M136.9,133.2c0.8-3.1,1.4-4.8,1.8-6.6c1.7-7.8,3.5-15.5,5.1-23.3c0.8-3.8,3-6.1,6.9-5.5c3.9,0.6,5.7,3.6,4.9,7.4
				c-2,9.4-4.2,18.7-6.5,28.1c-0.8,3.3-3.3,5.5-6.6,4.6C140.2,137.1,138.5,134.6,136.9,133.2z"/>
			<path d="M246.3,270.7c-0.9,1.1-2.2,3.8-3.9,4.1c-2.2,0.4-5.6-0.5-6.9-2.1c-6-7.5-11.6-15.3-16.8-23.4c-1.1-1.7-0.9-5.6,0.4-7.1
				c1.3-1.4,5.7-2.2,6.9-1.2c8.9,7.4,15.6,16.7,19.9,27.6C246.1,268.9,246.1,269.2,246.3,270.7z"/>
			<path d="M139.6,158.4c-0.8,2.5-1.1,3.8-1.7,4.9c-4,8-8,16-12.2,23.9c-2.2,4.1-6,5.3-9,3.2c-3.5-2.5-3.2-5.6-1.3-9.2
				c4.2-7.9,7.9-16.1,12.4-23.8c1.1-1.9,4.4-3.6,6.6-3.4C136.4,154.2,138.1,157,139.6,158.4z"/>
		</g>
	</g>
</g>
</svg>
