<svg id="Layer_1" data-name="Layer 1" xmlns="http://www.w3.org/2000/svg" viewBox="0 0 47.8 47.8"><defs><style>.cls-1{fill:#fff;}</style></defs><title>bone</title><g id="bone"><g id="Layer_1-2" data-name="Layer 1"><path class="cls-1" d="M15.62,48.7a7.81,7.81,0,0,1-7.76-7A7.8,7.8,0,0,1,8.61,26.1a7.65,7.65,0,0,1,3.77,1L27,12.45a7.65,7.65,0,0,1-1-3.77,7.8,7.8,0,0,1,15.56-.76,7.8,7.8,0,0,1-.76,15.56,7.65,7.65,0,0,1-3.77-1L22.42,37.13a7.55,7.55,0,0,1,1,3.77A7.8,7.8,0,0,1,15.62,48.7Zm-4.5-10.3-.27,2.08a3.13,3.13,0,0,0,0,.42,4.81,4.81,0,0,0,9.62,0,4.71,4.71,0,0,0-1.1-3l-.85-1,18.29-18.3,1,.85a4.8,4.8,0,1,0,3-8.52,2.86,2.86,0,0,0-.41,0l-2.09.26L38.59,9a2.23,2.23,0,0,0,0-.36,4.81,4.81,0,1,0-8.53,3l.85,1L12.67,31l-1-.85a4.72,4.72,0,0,0-3-1.09,4.81,4.81,0,1,0,0,9.62,2.23,2.23,0,0,0,.36,0Z" transform="translate(-0.81 -0.89)"/></g></g></svg>