<?xml version="1.0" encoding="utf-8"?>
<!-- Generator: Adobe Illustrator 20.0.0, SVG Export Plug-In . SVG Version: 6.00 Build 0)  -->
<svg version="1.1" xmlns="http://www.w3.org/2000/svg" xmlns:xlink="http://www.w3.org/1999/xlink" x="0px" y="0px"
	 viewBox="0 0 604.2 604.2" style="enable-background:new 0 0 604.2 604.2;" xml:space="preserve">
<style type="text/css">
	.st0{fill:#FFFFFF;}
	.st1{fill:#FAFCFE;}
	.st2{fill:#FFFFFF;stroke:#010101;stroke-width:2;stroke-miterlimit:10;}
	.st3{fill:#FBF9FB;stroke:#010101;stroke-width:2;stroke-miterlimit:10;}
	.st4{fill:#D3D3D3;stroke:#010101;stroke-width:2;stroke-miterlimit:10;}
	.st5{fill:#090909;stroke:#010101;stroke-width:2;stroke-miterlimit:10;}
	.st6{fill:#030303;stroke:#010101;stroke-width:2;stroke-miterlimit:10;}
	.st7{fill:#010101;}
	.st8{fill:#020202;}
	.st9{fill:#090909;}
	.st10{fill:none;stroke:#FAFCFE;stroke-width:4;stroke-miterlimit:10;}
</style>
<g id="Layer_1">
</g>
<g id="Layer_2">
	<g id="XFecc7.tif">
		<g>
			<path d="M490.1,567.2c-2.4,5.8-6.7,7.9-12.9,7.9C359.5,575,241.8,575,124.2,575c-9.5,0-12.7-3.1-12.7-12.5
				c0-177.8,0-355.6,0-533.4c0-1.3,0-2.7,0.1-4c0.4-4,2.2-7.5,6.3-7.9c2.9-0.3,6.8,0.5,8.9,2.4c7.9,7.2,15.2,15,23.2,23
				c6.1-6,12-11.8,17.9-17.5c12.1-11.9,12.9-11.9,25,0.3c5.6,5.6,11.2,11.3,17.1,17.3c7.7-7.5,14.9-14.6,22.2-21.7
				c6.4-6.2,10.2-6.2,16.5,0.1c7.1,7,14.1,14.1,22.5,22.6c5.1-5.8,9.8-11.4,14.9-16.6c14.3-14.8,15-14.1,28.9,0.3
				c4.8,5,9.7,10,15,15.4c7.4-7.3,14.4-14.1,21.4-20.9c7.6-7.4,10.8-7.4,18.2,0.1c6.7,6.7,13.3,13.5,20.4,20.7
				c6.4-6.3,12.6-12.3,18.7-18.3c1.7-1.6,3.3-3.3,5-4.9c4.8-4.3,9-4.3,13.6,0.3c7.5,7.4,14.8,14.9,22.7,22.9
				c4.5-4.5,8.8-8.8,13.1-13.1c3.2-3.2,6.3-6.4,9.6-9.5c6.2-6.1,12.4-5.1,16.4,2.6c0.3,0.6,0.7,1.1,1.1,1.6
				C490.1,205.2,490.1,386.2,490.1,567.2z M128.9,477.9c113.9,0,227.4,0,341,0c0-143.3,0-286.3,0-430.8c-4.9,5-8.8,9.2-12.9,13.2
				c-5,4.9-9.3,4.9-14.3,0.1c-2.6-2.5-5.2-5.2-7.8-7.8c-4.9-4.9-9.7-9.9-15.7-16.1c-7.3,7.9-13.9,15.3-20.7,22.3
				c-6.9,7-10.5,6.9-17.5-0.1c-6.9-6.9-13.8-13.9-21.8-21.9c-7.4,7.9-14.2,15.5-21.3,22.7c-6,6.1-10.1,6-16.1,0
				c-7.2-7.1-14.3-14.3-22.6-22.7c-7.4,7.9-14.3,15.6-21.6,22.9c-5.7,5.8-9.9,5.7-15.7-0.2c-7.2-7.1-14.3-14.3-21.7-21.8
				c-7.9,7.7-15.5,15.2-23.1,22.6c-5.1,4.9-9.3,4.8-14.3-0.1c-3.2-3.1-6.4-6.4-9.6-9.5c-4.3-4.3-8.6-8.6-13-13
				c-7.9,8-15.3,15.4-22.8,22.8c-5.3,5.2-9.9,5.3-15.1-0.1c-4.1-4.2-8-8.7-11.9-13c-0.5,0.4-0.9,0.7-1.4,1.1
				C128.9,191.6,128.9,334.5,128.9,477.9z M470.9,496.6c-114.1,0-227.8,0-341.4,0c0,20.1,0,39.8,0,59.4c114,0,227.6,0,341.4,0
				C470.9,536.1,470.9,516.5,470.9,496.6z"/>
			<path d="M386.9,283.2c9.4,10.4,13.6,22,9.7,35.6c-4.1,14.3-16.8,24.3-32,25.2c-14,0.9-27.8-7.8-33.4-21.6
				c-1.4-3.4-3.1-4.4-6.5-4.3c-16.8,0.2-33.6,0.1-50.5,0.1c-1.5,0-3,0.1-4.4,0.2c-5.2,15.8-16.1,24.6-32.4,25.5
				c-13.9,0.7-25.1-5.5-31.8-17.8c-8.5-15.5-5-29.8,6.5-42.7c-11.4-12.8-14.9-26.9-6.8-42.3c6.6-12.6,17.9-19,31.9-18.4
				c16.4,0.7,26.9,10.1,32.5,25.7c14.1,0,28.2,0,42.4,0c1.5,0,3-0.1,4.5,0c7.7,0.8,12.8-0.4,17.1-9.1c8.8-17.7,33.1-21.9,49.3-10.4
				c16.7,11.8,19.9,34.9,7.1,50.6C389.2,280.6,388.1,281.7,386.9,283.2z M380.2,257.4c0-9.1-6.8-16.2-15.8-16.6
				c-9.1-0.3-16.5,6.1-17.4,15c-0.8,7.9-3.6,10.5-11.5,10.5c-23.8,0-47.6,0-71.5,0c-8,0-10.7-2.5-11.7-10.4
				c-1.3-9.7-8.2-15.7-17.7-15.1c-8.5,0.5-15.2,7.4-15.6,15.9c-0.4,8.8,6.5,16.4,15.8,17.4c6.9,0.7,10.5,3.8,10.6,8.9
				c0.1,5.2-3.5,8.4-10.2,9.2c-9.7,1.2-15.9,8.5-15.3,18.2c0.5,8.4,7.5,15,16.2,15.2c9.3,0.1,16.2-6.3,17-16
				c0.5-6.3,3.7-9.5,9.9-9.5c24.7-0.1,49.3-0.1,74,0c6.2,0,9.5,3.3,10,9.4c0.9,10,7.8,16.5,17.3,16.1c8.6-0.3,15.5-7,15.9-15.5
				c0.4-9.7-5.9-16.8-15.7-17.9c-6.3-0.7-9.9-3.9-9.9-9c0-5,3.6-8.4,9.9-9C373.9,273.2,380.2,266.5,380.2,257.4z"/>
			<path class="st0" d="M263,300.1c-6.2,0-9.3,3.3-9.9,9.5c-0.8,9.6-7.7,16.1-17,16c-8.7-0.1-15.7-6.8-16.2-15.2
				c-0.5-9.7,5.6-17,15.3-18.2c6.8-0.8,10.3-4,10.2-9.2c-0.1-5.1-3.7-8.2-10.6-8.9c-9.3-1-16.2-8.6-15.8-17.4
				c0.4-8.6,7.1-15.4,15.6-15.9c9.5-0.6,16.4,5.4,17.7,15.1c1,7.9,3.7,10.4,11.7,10.4c23.8,0,47.6,0,71.5,0
				c7.9,0,10.7-2.6,11.5-10.5c0.9-8.9,8.3-15.4,17.4-15c9,0.3,15.8,7.5,15.8,16.6c0,9.1-6.3,15.8-15.8,16.8c-6.3,0.7-9.9,4-9.9,9
				c0,5,3.7,8.3,9.9,9c9.8,1,16.1,8.2,15.7,17.9c-0.3,8.5-7.2,15.2-15.9,15.5c-9.5,0.3-16.4-6.1-17.3-16.1c-0.5-6.1-3.8-9.4-10-9.4"
				/>
		</g>
	</g>
</g>
</svg>
