<?xml version="1.0" encoding="utf-8"?>
<!-- Generator: Adobe Illustrator 20.0.0, SVG Export Plug-In . SVG Version: 6.00 Build 0)  -->
<svg version="1.1" xmlns="http://www.w3.org/2000/svg" xmlns:xlink="http://www.w3.org/1999/xlink" x="0px" y="0px"
	 viewBox="0 0 30 30" style="enable-background:new 0 0 30 30;" xml:space="preserve">
<style type="text/css">
	.st0{fill:#FFFFFF;}
	.st1{fill:#FAFCFE;}
	.st2{fill:#FFFFFF;stroke:#010101;stroke-width:2;stroke-miterlimit:10;}
	.st3{fill:#FBF9FB;stroke:#010101;stroke-width:2;stroke-miterlimit:10;}
	.st4{fill:#D3D3D3;stroke:#010101;stroke-width:2;stroke-miterlimit:10;}
	.st5{fill:#090909;stroke:#010101;stroke-width:2;stroke-miterlimit:10;}
	.st6{fill:#030303;stroke:#010101;stroke-width:2;stroke-miterlimit:10;}
	.st7{fill:#010101;}
	.st8{fill:#020202;}
	.st9{fill:#090909;}
	.st10{fill:none;stroke:#FAFCFE;stroke-width:4;stroke-miterlimit:10;}
</style>
<g id="Layer_1">
</g>
<g id="Layer_2">
	<g id="Lcnaui.tif_1_">
		<g>
			<path d="M15.3,0.9C15.8,1,16.2,1,16.6,1.1c2.5,0.3,4.7,1.3,6.6,2.8c2.8,2.2,4.5,5,5.1,8.5c0.8,4.8-0.6,9-4.1,12.5
				c-2.1,2-4.6,3.2-7.4,3.7c-7,1.1-13.9-3.5-15.6-10.4c-1.8-7.4,2.6-14.8,10-16.7C12.1,1.2,13,1.1,13.8,1c0.1,0,0.2,0,0.3,0
				C14.5,0.9,14.9,0.9,15.3,0.9z M14.7,2.1C7.7,2.2,2,7.9,2,14.8c0,7,5.7,12.7,12.7,12.7c7,0,12.7-5.7,12.7-12.7
				C27.4,7.9,21.7,2.1,14.7,2.1z"/>
			<path d="M14.7,22.1c-0.9,0-1.8,0-2.7-0.3c-1.9-0.5-2.8-1.7-2.7-3.6c0.1-1.9,0.9-3.5,2.5-4.7c2-1.5,4.5-1.4,6.4,0.3
				c1.3,1.2,2,2.6,2.1,4.4c0.1,1.9-0.8,3.2-2.9,3.7C16.4,22,15.6,22,14.7,22.1C14.7,22.1,14.7,22.1,14.7,22.1z"/>
			<path d="M19.2,9c0,1.2-1,2.2-2.1,2.1c-1.2,0-2.1-1-2.1-2.2c0-1.2,1-2.2,2.2-2.1C18.3,6.8,19.2,7.8,19.2,9z"/>
			<path d="M14.4,9c0,1.2-1,2.2-2.1,2.2c-1.2,0-2.2-1-2.2-2.2c0-1.2,1-2.2,2.2-2.2C13.4,6.8,14.4,7.8,14.4,9z"/>
			<path d="M21.4,12.1c0,0.9-0.7,1.6-1.6,1.6c-0.9,0-1.6-0.7-1.6-1.6c0-0.9,0.7-1.6,1.6-1.6C20.7,10.5,21.4,11.2,21.4,12.1z"/>
			<path d="M11.1,12.1c0,0.9-0.7,1.6-1.6,1.6c-0.9,0-1.6-0.7-1.6-1.6c0-0.9,0.7-1.6,1.6-1.6C10.4,10.5,11.1,11.2,11.1,12.1z"/>
		</g>
	</g>
</g>
</svg>
