<svg id="Layer_1" data-name="Layer 1" xmlns="http://www.w3.org/2000/svg" viewBox="0 0 101.25 134.02"><defs><style>.cls-1{fill:none;stroke:#f6f29d;stroke-miterlimit:10;stroke-width:3px;}.cls-2{fill:#fdfefe;}</style></defs><title>divider</title><path class="cls-1" d="M190.32,49.47" transform="translate(2 53.92)"/><path class="cls-1" d="M-90.27,49.47" transform="translate(2 53.92)"/><g id="Shape_36" data-name="Shape 36"><path class="cls-2" d="M31.9,35.39a1.66,1.66,0,0,0,.22,1.67c-.92,0-1.49-1-1.79-1.85s-.6-1.87-1.43-2.25a1.48,1.48,0,0,1,.41,1.68A11.07,11.07,0,0,0,26,31c-1.58-1.12-2.5-3.08-4.24-3.92a2.58,2.58,0,0,1-1.24-.82,24.39,24.39,0,0,0-5-6A4.55,4.55,0,0,0,13.54,19a4.38,4.38,0,0,0-1.87.15,7.57,7.57,0,0,0-3.85,2,3.6,3.6,0,0,0-.69,4.06c.5.88,1.46,1.44,1.93,2.35.68,1.32.12,2.91-.19,4.37a5.75,5.75,0,0,0,.84,5,4.83,4.83,0,0,0,3.74,1.47,11.92,11.92,0,0,0,4-1,7.35,7.35,0,0,1,2.46-.66A2.27,2.27,0,0,1,22,37.92c.62-.46,1.51-.12,2.13.34a3.94,3.94,0,0,0,2,1.08c1.18.05,1.1,2.57,2.27,2.38a3.46,3.46,0,0,1-.62-1.62,3.9,3.9,0,0,1,1.26,1.5,2.82,2.82,0,0,1,2,.51c.91.66,1.48,1.9,2.59,2.06a.89.89,0,0,1-1,0l5.46,3.45c.48.3,1,.74.93,1.29a1,1,0,0,1-1,.73,2.76,2.76,0,0,1-1.27-.42,79.1,79.1,0,0,1-8.53-5.48L20.66,38.4l-5.56.68.13.7c-.63-.56-1.6-.25-2.42-.07a6.22,6.22,0,0,1-5-1.08A5.73,5.73,0,0,1,5.52,34a19.23,19.23,0,0,1,1-4.15,4.78,4.78,0,0,0-.45-4.1,4.89,4.89,0,0,1,.3-5.9A7.3,7.3,0,0,1,12,17.44a19.4,19.4,0,0,1,2.64.24,6.34,6.34,0,0,1,4,2.67c1,1.3,1.71,2.78,2.68,4.1a13.2,13.2,0,0,0,4.89,4,3.44,3.44,0,0,1-1.35.06,11.28,11.28,0,0,1,5.09,4.18,3.91,3.91,0,0,1,1.46.81L41.14,41a3.35,3.35,0,0,1,1.06,1.11c.39.81,1.34,1.15,2.15,1.56s1.62,1.2,1.4,2.07a15.19,15.19,0,0,1-4.81-3.32.72.72,0,0,0,.23-1,.79.79,0,1,1-1.57-.13c0-.24-.27-.39-.51-.35s-.45.2-.69.23a1.39,1.39,0,0,1-1-.39l-3.9-3-.2.83L31.9,35.39m4.95,12.67a54,54,0,0,1-6.08-4.18,1.61,1.61,0,0,0-.45-.28.8.8,0,0,0-.45,0,5.51,5.51,0,0,0,1.49,1.31L35.89,48c.3.2.75.38,1,.09M7.54,32.13c0,.28.26.67.46.47a3,3,0,0,1,.66-2,1.8,1.8,0,0,0-1.12,1.5M9,29.21c0-.42-.05-1-.47-1a2.07,2.07,0,0,0,0,1.6A.57.57,0,0,0,9,29.21m-1.18,7.6A1.72,1.72,0,0,0,9,38.17a1.85,1.85,0,0,0-1.2-1.36m30.07,3.35a.68.68,0,0,0,.4.22.35.35,0,0,0,.35-.37c-.25.16-.58,0-.74-.29s-.26-.55-.51-.71c-.19.41.17.85.5,1.15m-9.26,2.35a.59.59,0,0,0,.82.64A1.57,1.57,0,0,1,29,42a.49.49,0,0,0-.32.48m1.95.31.12,0,.16.06a1.67,1.67,0,0,0-.58-.66.58.58,0,0,0-.78.18l1.08.38M19.32,38.45l.32-.24A1.05,1.05,0,0,0,18.38,38c.07.35.54.41.89.38m12.14-3.17L31,34.06a.26.26,0,0,0-.37,0,1.09,1.09,0,0,0,.78,1.13M7.35,34.64a1.57,1.57,0,0,0,.75.25.66.66,0,0,0-.88-.47c-.17.05,0,.38.14.26m3.17,3.69-.31.22a.57.57,0,0,0,1-.13l-.63-.07m10.55-12a.43.43,0,0,0,.66-.39.55.55,0,0,0-.75.4M35.35,38.06c.14.18.45-.12.32-.32a.47.47,0,0,0-.62-.07.58.58,0,0,0,.29.39M26.2,40.49a.36.36,0,0,0,.66.14.58.58,0,0,0-.73-.26M19.84,23.64a.82.82,0,0,0,.05-.48.28.28,0,1,0,0,.52M33.12,35.79a.3.3,0,0,0-.42-.29.65.65,0,0,0,.23.45c.15.09.41,0,.35-.2m-1.9,7.63c.24.06.21-.38,0-.53a.28.28,0,0,0,0,.51Z" transform="translate(2 53.92)"/><path class="cls-2" d="M13.72,79.66a1.59,1.59,0,0,1-.49.37,1.6,1.6,0,0,1-.89,0A11.74,11.74,0,0,1,8,78.63a5.91,5.91,0,0,1-2.5-3.53c-.24-1-.27-2.18-1.06-2.85-2.87-2.42-2.67-7.31-.14-10.08S11,58.59,14.65,59.32c1.49.3,3,.81,4.49.45.86-.21,1.86-.7,2.54-.13-.26-.2,0-.67.35-.63a.7.7,0,0,1,.51.73,1.43,1.43,0,0,0-1,.45.69.69,0,0,0-1.17-.09A2.82,2.82,0,0,0,23,60c-1.23,1.56-3.55,1.55-5.53,1.41a.63.63,0,0,0,.43-.82,5.4,5.4,0,0,1-3.66.61A1.45,1.45,0,0,0,15,60c-.88,1.42-3.13.49-4.69,1.08-1.31.5-2.46,2.15-3.71,1.51.15.52-.37,1-.78,1.33A5.35,5.35,0,0,0,4,68a.83.83,0,0,0-1.3-.23A7.75,7.75,0,0,1,5.9,73.33l.4-1.49.31,1c.67,2.18,1.67,4.69,3.88,5.25s4.49-1.4,6.1-3.22c.15-.17.31-.41.2-.61s-.52.05-.32.17a4.23,4.23,0,0,0,1.36-2,4.75,4.75,0,0,1,3.41-3.1,2.25,2.25,0,0,0,2.95-2.1.51.51,0,0,1,.31.85A4.25,4.25,0,0,0,26.62,67c1.07-.87,2.14-1.74,3.24-2.58a.89.89,0,0,1,.74-.26c.26.08.31.56,0,.57a10.31,10.31,0,0,1,2.81-2.18l4.47-2.71,10.63-6.44A1.6,1.6,0,0,1,49.86,53c.44.17.5,1,0,1a56.08,56.08,0,0,1,6.79,4.55,1.12,1.12,0,0,0-.75.57l1.75.48-.63-1a1.66,1.66,0,0,1,1.23.43c.28.34,0,1-.39.95a2,2,0,0,1,1.35,1.11,1.21,1.21,0,0,0,.52-1,8.45,8.45,0,0,1,1.16,2c-.09-.28.27-.52.55-.45a1.61,1.61,0,0,1,.69.51c1.6,1.58,4.5,1.58,5.67,3.5-.26-.2.17-.61.45-.46s.33.53.35.85a1,1,0,0,0,.32.87,119.06,119.06,0,0,1-13.43-7.48c-.94-.61-2-1.39-2-2.51A1,1,0,0,0,53.24,58a22.08,22.08,0,0,1-3.65-3.26l-1.7.49.48-.76a1.11,1.11,0,0,0-1.31.43l.24.77c-1.24.63-2.42,1.36-3.6,2.1l-1.77,1.11c-2.29,1.43-4.58,2.86-6.75,4.48a1.18,1.18,0,0,1-.7.31c-.26,0-.52-.3-.39-.53.19.59-.33,1.18-.89,1.45a8.73,8.73,0,0,0-1.7.76c-.5.39-.79,1-1.37,1.29s-1.43-.5-1-.9c0,1.55-1.59,2.54-3,3.24l-6.44,3.23a1.13,1.13,0,0,1,.15-1.24c-.09-.34-.5.16-.47.5.2,2.12-1.42,3.92-2.93,5.42l-2.82,2.8m-1-19.76a.37.37,0,0,0-.58,0,3.19,3.19,0,0,0,1.94.22,1.32,1.32,0,0,0-1.38-.29M3.32,66.42c-.06.19-.05.48.14.48L4,65.2A.32.32,0,0,0,3.77,65l-.45,1.41m39.46-8.54a.44.44,0,0,0-.11-.63c-.18.17-.39.39-.33.64s.54.23.47,0M41,58.22a.37.37,0,0,0,.53.4.7.7,0,0,0-.15-.46c-.12-.12-.37-.09-.4.07M6.9,76.47c0,.09.18.08.21,0a.31.31,0,0,0-.06-.27,2,2,0,0,0-.55-.58,1.56,1.56,0,0,0,.39.85M19.76,60.83a.27.27,0,1,0,.52-.05.29.29,0,0,0-.44.07m-11.22,0a.19.19,0,0,0,.07-.32.9.9,0,0,0-.49.05.33.33,0,0,0,.41.26m16,8c0-.08-.12-.13-.17-.06a.28.28,0,0,0,0,.26.48.48,0,0,0,.53,0,.52.52,0,0,0-.34-.2m2.75-1.54a.62.62,0,0,0-.39-.29.44.44,0,0,0,.07.38c.1.1.31,0,.29-.1M4.7,71.12A.24.24,0,0,0,4.34,71c-.1.22.36.38.42.14M9.3,60.9a.39.39,0,0,0,.54.15c0-.23-.34-.24-.56-.16m22.77,3.44c0-.18-.24-.36-.33-.2a.22.22,0,0,0,.34.21m-12.72-4a.21.21,0,0,0-.38.11.23.23,0,0,0,.4-.12Z" transform="translate(2 53.92)"/><path class="cls-2" d="M77.67,62.56a24.85,24.85,0,0,1-5.53-.9,2.51,2.51,0,0,0,1.79-.72,1.69,1.69,0,0,1-2.32-1.07.93.93,0,0,0,.45,1.37,1,1,0,0,1-1.27-1.3c-.42-.13-.84.21-1.28.25s-.78-.74-.34-.75a8.37,8.37,0,0,1-5.32-2.38c-.21-.21-.55-.13-.84-.08-1.65.29-3.21-.79-4.52-1.83q-2.42-1.92-4.75-4a3.75,3.75,0,0,1-.27.8,2,2,0,0,1-2.49.82l-.1.94c-.47-.09-.63-.75-.39-1.18a2.32,2.32,0,0,1,1.14-.85L60,47.89c-.28.11-.4-.41-.17-.59s.56-.14.85-.21a2.73,2.73,0,0,0,1.11-.74,14.23,14.23,0,0,1,4-2.22L75.57,40c.37-.15.84-.29,1.12,0-.21-.71.61-1.26,1.29-1.56l7.45-3.18a2,2,0,0,1,1.87-.12,1.34,1.34,0,0,1,1-1.57c.19,1-.89,1.73-1.81,2.16l-14.4,6.78a1.34,1.34,0,0,1-.85.19c-.29-.07-.51-.43-.33-.66a1.12,1.12,0,0,0-.35,1.39l-9.46,4.32a1,1,0,0,1,1.23.14,8,8,0,0,0-3.62,1.45l-2,1.23.66,1.87c.52-.49,1.36-.12,2,.27l4.59,2.95a15.13,15.13,0,0,0,5.54,2.58c-.17-.26-.57.17-.4.43s.54.26.85.28a4.06,4.06,0,0,1,3,1.72,2.26,2.26,0,0,1,1.72.18,7.41,7.41,0,0,1,3,1.73M60.92,55.33l-.34.61a.46.46,0,1,0,.31-.75m-5.09-3.67a.43.43,0,0,0-.13-.77.89.89,0,0,1-.45.62.71.71,0,0,0,.33.46l.27-.26m3.54,3.16a.79.79,0,0,0,.41.47A1.35,1.35,0,0,0,59.42,54l-.31.19.28.55m-1.6-1.09a.63.63,0,0,0,.68.17c0-.4-.51-.58-.91-.64a.34.34,0,0,0,.21.46m4.49,2.53c-.2-.07-.47.09-.44.31a.46.46,0,0,0,.8-.27l-.35-.07m-2-8.65a.38.38,0,0,0-.13.41.35.35,0,0,0,.52-.29l-.39-.14M56.09,51.7c-.14,0-.25.16-.21.3a.41.41,0,0,0,.33.24l.2-.33a.5.5,0,0,0-.33-.2m11.69,7,.46-.21a1.12,1.12,0,0,0-.6-.07c-.11.08,0,.3.13.26m-7.12-4.3c.15,0,.39,0,.31-.18s-.44,0-.32.2Z" transform="translate(2 53.92)"/><path class="cls-2" d="M89.87,32.35a7.07,7.07,0,0,1,2,3l-2.43-1c-.3-.13-.66-.36-.58-.68a1.12,1.12,0,0,0-.75-1.23,2.88,2.88,0,0,0-1.56,0,16.07,16.07,0,0,0-8.42,4.44,2.17,2.17,0,0,1-1,.47l-1.93.56C76,36.11,77.74,35,79.38,34c3-1.81,6-3.65,9.46-4.08.19.26-.08.65-.4.72a5,5,0,0,1-1,0A1.75,1.75,0,0,0,86,31.9a4.75,4.75,0,0,1,3.69-.65.71.71,0,0,1,.35.17c.24.25.06.65-.13.94m-4.51-.68c.18,0,0-.37-.12-.23l-.22.32a.21.21,0,0,0,.32-.08Z" transform="translate(2 53.92)"/><path class="cls-2" d="M92.45,34.63a.71.71,0,0,1,0,1.05c.26.4.83-.19.82-.67s0-1.15.48-1.19c2.23-.19,4.11-2.6,3.43-4.74a14.15,14.15,0,0,0-.9-1.82,6.45,6.45,0,0,1-.08-5.4,3.2,3.2,0,0,0-1.71-4.14l.81-.06c.25-.19-.14-.53-.45-.59l-2.22-.43a4.73,4.73,0,0,0-2.09-.09c-2.5.65-2.72,4.79-5.22,5.41l-1.62,2.35a9.23,9.23,0,0,1-1.61,1.94,9.22,9.22,0,0,1-1.44.92l-3,1.68a4.4,4.4,0,0,0-2.31,2.19,2.84,2.84,0,0,1-.43-1.37,3.8,3.8,0,0,1-.46,1.89,1.31,1.31,0,0,1-1.7.51,1.73,1.73,0,0,1-.79,1.32L72,31.6a1.56,1.56,0,0,0-.88,1.57.79.79,0,0,1-1.22.45c.24.09.17-.44-.08-.39s-.35.35-.41.59a6,6,0,0,1-4.87,4.36l-.17-.68a1,1,0,0,0,1.08-1.2,4.31,4.31,0,0,0-2,.94,1.48,1.48,0,0,0-.2,2c-.57-.19-1.39-.29-1.62.26.08-.42-.53-.61-1-.51a3.07,3.07,0,0,0-2.32,2.54l-.7-.24c.44.5-.31,1.41-.89,1.07a1.17,1.17,0,0,0,.05-1.24,4.62,4.62,0,0,1-5.22,3l.55.76a5.09,5.09,0,0,1-2.62-.2.85.85,0,1,1-1.38.92A5.34,5.34,0,0,1,48.1,47L47,46.55c-.33-.13-.69-.58-.38-.75q6.43-3.48,12.53-7.53l.57.57c-.32-1,1.81-1.14,2-2.18,0-.33.44-.47.77-.53l2.9-.58c-.41-.49.24-1.14.8-1.44l6.26-3.34c.6-.32.94-1,1.45-1.43s1.41-.66,1.79-.09c1-.43.86-2.5,1.92-2.34a1,1,0,0,0-.31,1l1.1-1.08.42.95A1.73,1.73,0,0,0,79,26.54a.39.39,0,0,1,.55.16,2.76,2.76,0,0,1,1.73-1.82,1.26,1.26,0,0,0,1.15.29l-1-.66a2.78,2.78,0,0,1,1.9-.8l-.8-.42.26-1.2,1.08-.32c-.28,0-.21-.45,0-.68L86,18,86,19.36l1-1.56a1.5,1.5,0,0,1,1.67-1.55l.14-.63a13.83,13.83,0,0,1,5.63-.29A4.72,4.72,0,0,1,98.16,19c-.28.25-.77,0-.9-.32a1.76,1.76,0,0,1,.07-1.11c-.7.31-.34,1.38.18,1.93s1.16,1.35.71,2a5.41,5.41,0,0,0,.21,6.42,1,1,0,0,0,.44,1.66l-.58.69a2.35,2.35,0,0,1,.95.54,5.43,5.43,0,0,1-1.86,1.91h.92a7.26,7.26,0,0,1-6.59,3.62c-.67,0-1.55-.68-1.1-1.18a1,1,0,0,0,1.83-.56M67.28,36.26a1.06,1.06,0,0,1-.51.34c-.2,0-.45-.1-.45-.3a10.31,10.31,0,0,1,1.54-.67c.49-.28.79-1.06.31-1.37a1.48,1.48,0,0,1-.62,1,.81.81,0,0,1-1.06-.17l-.22.3a1.48,1.48,0,0,0-.42,1.15.73.73,0,0,0,1.43-.24m28.18-.92a1.37,1.37,0,0,1,1.47-1.48l.06-.34c-.48-.31-1.05.18-1.57.41-.26.12-.55.17-.82.27a1.22,1.22,0,0,0-.68.5.59.59,0,0,0,.14.77c.24.15.64-.05.59-.34l-.1-.55a.51.51,0,0,1,.38-.07.89.89,0,0,0,.54.82M96.52,23c-.24,0-.22.43,0,.48s.45-.15.58-.36a2.07,2.07,0,0,0,.18-1.76c-.32.09-.34.53-.32.87s-.12.79-.45.76M61.36,38.64a2.37,2.37,0,0,0,1.41-.27.92.92,0,0,0-1.41.27m37-7.94c.06-.08,0-.21-.15-.19a.34.34,0,0,0-.22.21,1.5,1.5,0,0,0-.1,1,1,1,0,0,0,.45-1.05M54.55,42.79l.41-.27a.49.49,0,0,0-.68-.11,1.18,1.18,0,0,0-.41.64.48.48,0,0,0,.64-.29M96.72,25.57a1.12,1.12,0,0,0,.05-1,.52.52,0,0,0-.13.95M55.5,42.25a.53.53,0,0,0,.19.6.82.82,0,0,0,0-1.09.47.47,0,0,0-.21.47M67.31,35c.15-.39-.12-1-.53-.88a1,1,0,0,0,.45.8M53,43.49a.44.44,0,0,0,.72-.18.49.49,0,0,0-.67.13M85.32,20.27a.34.34,0,0,0,.31.38.31.31,0,0,0,.21-.31.73.73,0,0,0-.47-.05m3-3.15a.21.21,0,0,0-.38.11.45.45,0,0,0,.32.1c.11,0,.18-.19.09-.26M97.23,32c.06-.08,0-.2-.15-.18a.39.39,0,0,0-.23.19.21.21,0,0,0,.38,0M87.31,18.21c-.08.06.06.19.14.14s.1-.17.1-.27-.29,0-.23.12Z" transform="translate(2 53.92)"/><path class="cls-2" d="M11.26,74.5a3.21,3.21,0,0,1,.65-2.7,11.43,11.43,0,0,1,3.76-3.57c.41-.24.83-.45,1.24-.66l4.53-2.29c.33-.17.7.25.65.61a1.53,1.53,0,0,1-.64.86l-4.14,3.4-3.65,3a23,23,0,0,0-1.86,1.64c-.17.17-.45-.07-.53-.3m1-1.68a.42.42,0,0,0-.42-.12,3.51,3.51,0,0,0,.27,1,.65.65,0,0,0,.21-1m2.81-2.26c0-.2-.27-.3-.43-.17a.76.76,0,0,0-.2.54.6.6,0,0,0,.58-.38m.11-.43.39-.16a.5.5,0,0,0-.06-.35.38.38,0,0,0-.33.48m1.67-1.4a.3.3,0,0,0,0,.37c.2,0,.23-.37,0-.4Z" transform="translate(2 53.92)"/><path class="cls-2" d="M22.7,58.2c.18-.13.39.11.52.3s.46.32.52.1l-.52-.75A3.64,3.64,0,0,0,25.9,56.7c.24-.35.91,0,1.19-.28a3.14,3.14,0,0,1,2.35-1.08A5.65,5.65,0,0,1,30.87,54a2.44,2.44,0,0,1,1.65-.63c.6.08,1.09.84.7,1.3a.68.68,0,0,1-.83.13.72.72,0,0,1-.32-.79c-.53.17-.33,1-.62,1.49a1.5,1.5,0,0,1-.63.5l-2.19,1.16c-.55.29-1.26.57-1.75.19a2,2,0,0,1,0,.84.68.68,0,0,1-.6.51,3.17,3.17,0,0,0-2.73,1.57,1,1,0,0,1-.39-.52l-.47-1.07c-.07-.16-.13-.38,0-.48m5.44-1.56c.12,0,.05-.23-.07-.23s-.2.11-.26.22l.33.06Z" transform="translate(2 53.92)"/><path class="cls-2" d="M90.65,70.84c-.6.65.46,1.72.13,2.55a1.18,1.18,0,0,1-1-.05l-.22.38a7.05,7.05,0,0,0,1.18.27c.38.13.68.68.36.92a.53.53,0,0,0-.09.59,1.49,1.49,0,0,1,.16.62c0,.21-.28.41-.45.28a.43.43,0,0,0-.38-.38c-.18.06.08.26.21.4s.07.36,0,.53A2.89,2.89,0,0,1,90,78a1,1,0,0,1-1.07.3c.13.18-.15.39-.37.38s-.48-.1-.64,0-.12.42,0,.64a1,1,0,0,1-.9-.53,1.35,1.35,0,0,1-1.51.29,1.2,1.2,0,0,1,1-.73,5.28,5.28,0,0,0,1.32-.21c1.14-.49,1.29-2.29,2.46-2.7a3.55,3.55,0,0,1-1.14-2.83,2.83,2.83,0,0,0-.41-1.26,1.16,1.16,0,0,1,.05-1.26,1.93,1.93,0,0,0,1.85.73m-1.06,6.71a.31.31,0,0,0,.38,0l-.26-.77a.5.5,0,0,0-.13.76m0-6.11a.29.29,0,0,0-.28-.41.47.47,0,0,0-.06.34.44.44,0,0,0,.33.06m.92,2.83a.21.21,0,0,0-.33-.07c0,.14.09.29.22.33s.24-.21.11-.23M89,78a.22.22,0,0,0-.11-.38A.23.23,0,0,0,89,78Z" transform="translate(2 53.92)"/><path class="cls-2" d="M83.25,71.68c.19-.32.68-.2,1-.26.77-.14,1.12-1.19,1.9-1.29.43-.06.69-.51.8-.93a3.24,3.24,0,0,1,.4-1.23h.39a4.48,4.48,0,0,1-2.35,4.34,6.07,6.07,0,0,0-.76.4c-.42.29-.71-.92-1.17-.7-.19.14-.06.44.06.64s.19.54,0,.62a.38.38,0,0,1-.21,0c-1.24-.32-1.74-1.75-2.39-2.86a6.87,6.87,0,0,0-1.83-2,16.37,16.37,0,0,0,1.85-.29.77.77,0,0,1-.08.74,1.12,1.12,0,0,1,1,.64,3,3,0,0,1,.27,1.2,1.72,1.72,0,0,0,.26,1c.22.27.7.34.88,0M86.6,71l0-.33a.56.56,0,0,0-.84.26,1.86,1.86,0,0,0,.77.06Z" transform="translate(2 53.92)"/><path class="cls-2" d="M12.82,33.64a.53.53,0,0,1-.49-.06.5.5,0,0,0-.3.55,23.93,23.93,0,0,1,4.28-.3A8,8,0,0,1,20.36,35a.93.93,0,0,1,.45.53c0,.23-.16.51-.39.44l-2.76-.92a3.37,3.37,0,0,0-1.58-.26,11.44,11.44,0,0,1-5.35-.41,2.32,2.32,0,0,0,.32-1,1.63,1.63,0,0,1,.42-1,.62.62,0,0,1,.93.06A3.79,3.79,0,0,1,12.82,33.64Z" transform="translate(2 53.92)"/><path class="cls-2" d="M39.64,49.56a.31.31,0,0,1,.21-.11.27.27,0,0,1,.15.07,1.08,1.08,0,0,1,.18,1.33,2.35,2.35,0,0,1-1.09.92,11.67,11.67,0,0,0-2.93,1.43,2.61,2.61,0,0,1-2.27.6,1,1,0,0,1-.7-.44.46.46,0,0,1,.27-.67c1.29-.17,2.15-1.59,3.44-1.74.35,0,.79,0,.94-.35s.72.37,1,.14a3.3,3.3,0,0,1,.77-1.19m-3.16,2.3a.26.26,0,0,0-.14.38.44.44,0,0,0,.47-.2l-.34-.19Z" transform="translate(2 53.92)"/><path class="cls-2" d="M86.29,59.79a.55.55,0,0,1,.51-.62.84.84,0,0,0-1.1-.42,1,1,0,0,1,.27.83.6.6,0,0,1-.75-.37,1.54,1.54,0,0,1-1.42.21,3.37,3.37,0,0,1,4.59-.8l-.29.31a6.88,6.88,0,0,0,1.77.42c.59.15,1.22.62,1.13,1.23-.23,0-.42-.16-.54-.36a1.17,1.17,0,0,0-.44-.51c-.21-.09-.52.08-.45.3l1.63,1.52a1.11,1.11,0,0,1,.43,1.31l-.39,2c-.26-.08-.34-.41-.33-.69a1.81,1.81,0,0,0,0-.81c-.09-.23-.32-.38-.44-.59s-.06-.58.18-.59c.05.31.28.72.56.58s.18-.41,0-.56a1,1,0,0,0-.62-.2c-.6-.89-1.36-1.87-2.43-1.88C87.51,60.13,86.87,59.49,86.29,59.79Z" transform="translate(2 53.92)"/><path class="cls-2" d="M78.08,72.54c.09-.18-.07-.41-.27-.46a1.36,1.36,0,0,0-.6,0A3,3,0,0,1,74,70.4a1.78,1.78,0,0,0-.8-.75q-1.25-.76-2.46-1.59a1.08,1.08,0,0,0,.62-.29,2.84,2.84,0,0,1-1.63-1c.15,0,.13-.27,0-.36a1.74,1.74,0,0,0-.42-.15.63.63,0,0,1-.15-1c.71,1.16,2.26,1.44,3.35,2.25.22.16.44.43.33.67s.09.3.23.39l2.61,1.64a.71.71,0,0,0,0,1.12,1.46,1.46,0,0,0,1.26.18l-.49-.65a7,7,0,0,1,2.27,1.48Z" transform="translate(2 53.92)"/><path class="cls-2" d="M81.52,75.51l-.58-.06c-.21-.12-.11-.48.12-.57a1,1,0,0,1,.71.1,2.94,2.94,0,0,1,1.27.79,8.54,8.54,0,0,1,.56,1.09A2.26,2.26,0,0,0,85.27,78c.23,0,.57.15.48.37a1,1,0,0,1-1.35.42,3.46,3.46,0,0,1-1.17-1A2.35,2.35,0,0,0,82,76.84c-.13.35.22.68.53.9l.64.44a.9.9,0,0,1,.36.38.31.31,0,0,1-.2.42.45.45,0,0,1-.34-.17l-1.63-1.58a3.39,3.39,0,0,0-1.07-.79,1.46,1.46,0,0,1-.9-1.19.47.47,0,0,0,.15-.53.75.75,0,0,0-.46-.06l-.14.42-.39-.24a.64.64,0,0,1,.39-.86,1,1,0,0,1,1,.31,1.43,1.43,0,0,1,.36.93.68.68,0,0,0,1.29.28m.57.56a.19.19,0,0,0,.35,0c0-.2-.38-.2-.4,0Z" transform="translate(2 53.92)"/><path class="cls-2" d="M40.88,50.33a1.09,1.09,0,0,0-.2-1.15,1.14,1.14,0,0,1,1.13.15l-.14-.77a1.21,1.21,0,0,0,1.69-.72c.1-.41.67-.4,1.08-.5a9.89,9.89,0,0,0,1.18-.61c.41-.17,1-.08,1.12.35a1.41,1.41,0,0,1-.95.53.67.67,0,1,1-1.12.75.43.43,0,0,0-.07.31c-1.38.17-2.34,1.78-3.73,1.67m4.22-2.75a.23.23,0,1,0,.32.3l-.34-.34Z" transform="translate(2 53.92)"/><path class="cls-2" d="M78.29,66.13c-.49-.31-1.13,0-1.62.32a1.2,1.2,0,0,0-.41.36,2.21,2.21,0,0,0,.9.07,1.14,1.14,0,0,1,.08.54,1.79,1.79,0,0,1,1.67.5,1.34,1.34,0,0,0-1,.58c-.5,0-.84-.49-1.22-.82-.86-.76-2.38-.79-2.81-1.86a1.48,1.48,0,0,0,.64-.08.51.51,0,0,0,.32-.51c0-.21-.35-.35-.49-.19s-.72-.17-1,0-.13.55,0,.8L73,66a2,2,0,0,1-.21-.93.69.69,0,0,1,.6-.65,2.4,2.4,0,0,1,2.08,1.19,4.36,4.36,0,0,1,3.78,1C78.94,66.77,78.61,66.33,78.29,66.13Z" transform="translate(2 53.92)"/><path class="cls-2" d="M8,70.48a1.74,1.74,0,0,0-.15-.88,4.06,4.06,0,0,1-.1-2.85.33.33,0,0,1,.09-.2c.13-.11.32,0,.42.18,1,1.4.76,3.29.5,5l-.29,1.85L8,73.6Z" transform="translate(2 53.92)"/><path class="cls-2" d="M82,61.12a3,3,0,0,1-2.4.81l.45.6a5,5,0,0,1-2-.12l-.19-.6a1.75,1.75,0,0,0,.93.24c.32,0,.63-.34.56-.65l-.77,0c-.13-.17.14-.36.35-.4l1-.21a.64.64,0,0,1,.36,0c.34.13.49.79.79.59s-.11-.45-.32-.6-.3-.58,0-.57a6.23,6.23,0,0,0,2-.29c.47-.15,1.09-.32,1.39.07a.31.31,0,0,1,.07.14c0,.27-.36.33-.63.3a5.23,5.23,0,0,0-1.79.07.29.29,0,0,0-.07.32A.24.24,0,0,1,82,61.12Z" transform="translate(2 53.92)"/><path class="cls-2" d="M91.26,27.23c-.46.41-1.06.76-1.18,1.37-.4.07-.93.06-1-.32a.55.55,0,0,0,.3-.41l-.48.17c-.25,0-.25-.43,0-.54a2.35,2.35,0,0,1,.75-.08c.25,0,.51-.32.35-.52a.85.85,0,0,1,0-.93,2.48,2.48,0,0,1,.71-.69.78.78,0,0,1,.42-.2.5.5,0,0,1,.46.51.91.91,0,0,1-.36.65.54.54,0,0,0,.72-.53.46.46,0,0,1,.42,0A3.71,3.71,0,0,1,91.26,27.23Z" transform="translate(2 53.92)"/><path class="cls-2" d="M91.14,68.28a2.37,2.37,0,0,0-1,1.49.64.64,0,0,1-.16.39.38.38,0,0,1-.52-.11,1.11,1.11,0,0,1-.18-.55l-.14-1.06Z" transform="translate(2 53.92)"/><path class="cls-2" d="M80.08,74.15l-.81-.59a1.52,1.52,0,0,1-.44-.42,1,1,0,0,1,0-.83A20.46,20.46,0,0,1,81,74.22C80.81,74.52,80.35,74.35,80.08,74.15Z" transform="translate(2 53.92)"/><path class="cls-2" d="M92.44,29.93l-1.61,1.85a1.33,1.33,0,0,1,1.61-1.85Z" transform="translate(2 53.92)"/><path class="cls-2" d="M90.39,65.61l-.37.71a.61.61,0,0,1,.93.3,1,1,0,0,0-1.17.49c-.25.39-.36.85-.59,1.25-.35-.07-.29-.59-.13-.92l.79-1.67a.6.6,0,0,1,.24-.31C90.21,65.4,90.39,65.47,90.39,65.61Z" transform="translate(2 53.92)"/><path class="cls-2" d="M76.86,73.19a.59.59,0,0,1,.63-.61,1.07,1.07,0,0,1,.8.53,1.88,1.88,0,0,1,.3.87A3.87,3.87,0,0,1,76.86,73.19Z" transform="translate(2 53.92)"/><path class="cls-2" d="M22.19,68.7a1.81,1.81,0,0,1,1.21-.61.76.76,0,0,1-.38.79,2.23,2.23,0,0,1-.9.25.28.28,0,0,1,.08-.43Z" transform="translate(2 53.92)"/><path class="cls-2" d="M51.36,54.06a7.06,7.06,0,0,1,2-1A2,2,0,0,1,51.36,54.06Z" transform="translate(2 53.92)"/><path class="cls-2" d="M59.09,40.64c-.05-.21.16-.38.35-.49l1.12-.65a.48.48,0,0,1,.43-.09c.3.14,0,.59-.26.77l-1.28.8A.42.42,0,0,0,59.09,40.64Z" transform="translate(2 53.92)"/><path class="cls-2" d="M70.45,34.47a.46.46,0,1,1-.87,0,1.72,1.72,0,0,1,.95,0Z" transform="translate(2 53.92)"/><path class="cls-2" d="M83.41,60.59c.16,0,.29.17.24.32a.68.68,0,0,1-.35.33l-1,.58c-.11-.29.23-.54.52-.65S83.43,60.9,83.41,60.59Z" transform="translate(2 53.92)"/><path class="cls-2" d="M16.86,39.59c-.35.08-.86,0-.87-.32a1,1,0,0,1,.74-.22c.26.07.38.49.14.59Z" transform="translate(2 53.92)"/><path class="cls-2" d="M78.29,26.52a.28.28,0,0,1-.4.14.82.82,0,0,1,.94-.73.67.67,0,0,1-.53.55Z" transform="translate(2 53.92)"/><path class="cls-2" d="M81.86,74l.34.18a.36.36,0,0,1-.19.43.83.83,0,0,1-.66-.56.82.82,0,0,1,.52-.07Z" transform="translate(2 53.92)"/><path class="cls-2" d="M82.82,71.42a.58.58,0,0,1-.28-.79.88.88,0,0,1,.63.77l-.35.07Z" transform="translate(2 53.92)"/><path class="cls-2" d="M63.93,37.81a.51.51,0,0,1-.48.62.87.87,0,0,1,0-.62c.11-.18.44-.21.51,0Z" transform="translate(2 53.92)"/><path class="cls-2" d="M77.91,66.92a.43.43,0,0,1-.4-.5A.38.38,0,1,1,78,67Z" transform="translate(2 53.92)"/><path class="cls-2" d="M25.48,67.49a.46.46,0,0,1-.48-.55c.26-.19.67.23.47.48Z" transform="translate(2 53.92)"/><path class="cls-2" d="M62.4,61.79c.3-.05.75,0,.73.32a.51.51,0,0,1-.75-.33Z" transform="translate(2 53.92)"/><path class="cls-2" d="M71.53,34.67c-.17,0-.26-.23-.18-.37a.46.46,0,0,1,.44-.18.34.34,0,0,1-.27.52Z" transform="translate(2 53.92)"/><path class="cls-2" d="M82.23,23.44a.26.26,0,0,1-.36.19A.49.49,0,0,1,82,23a.45.45,0,0,1,.2.46Z" transform="translate(2 53.92)"/><path class="cls-2" d="M92.05,33.91c-.12-.26.39-.45.53-.2s-.12.59-.41.61a.31.31,0,0,1-.29-.12c-.06-.09,0-.25.11-.25Z" transform="translate(2 53.92)"/><path class="cls-2" d="M76.5,30.09a1.06,1.06,0,0,1,.71-.4.54.54,0,0,1-.75.46Z" transform="translate(2 53.92)"/><path class="cls-2" d="M73.21-53.92a.5.5,0,0,1-.07.74.45.45,0,0,1,.06-.75Z" transform="translate(2 53.92)"/><path class="cls-2" d="M18.62-38.79c-.14,0-.25-.16-.21-.3a.42.42,0,0,1,.34-.24.35.35,0,0,1-.14.52Z" transform="translate(2 53.92)"/><path class="cls-2" d="M79.43,69.39a.41.41,0,0,1-.59.11c0-.23.34-.23.55-.14Z" transform="translate(2 53.92)"/><path class="cls-2" d="M-1.66,66.2A.42.42,0,0,1-2,66.15a.34.34,0,0,1,.34-.34.35.35,0,0,1,0,.41Z" transform="translate(2 53.92)"/><path class="cls-2" d="M89.21,30.87a.32.32,0,0,1,.13-.48.47.47,0,0,1,.52.17.57.57,0,0,1-.61.19Z" transform="translate(2 53.92)"/><path class="cls-2" d="M7.34,71.85a.52.52,0,0,1,0-.52.3.3,0,0,1,0,.55Z" transform="translate(2 53.92)"/><path class="cls-2" d="M90,67c.23-.08.54.08.53.32A.59.59,0,0,1,90,67Z" transform="translate(2 53.92)"/><path class="cls-2" d="M82.88,35c0,.13-.18.24-.26.13a.35.35,0,0,1,.08-.36l.2.2Z" transform="translate(2 53.92)"/><path class="cls-2" d="M74.1,32.51a.21.21,0,0,1,.33-.07c0,.14-.09.29-.22.33s-.24-.21-.11-.23Z" transform="translate(2 53.92)"/><path class="cls-2" d="M58.28,51.36a.28.28,0,0,1-.39.15.27.27,0,0,1,.14-.28.17.17,0,0,1,.24.15Z" transform="translate(2 53.92)"/><path class="cls-2" d="M79.78,67.23a.21.21,0,0,1,.08.33c-.2,0-.26-.37-.06-.36Z" transform="translate(2 53.92)"/><path class="cls-2" d="M80.21-51.49a1.35,1.35,0,0,1-.23.61.7.7,0,0,1-.19-.58c.06-.2.44-.24.45,0Z" transform="translate(2 53.92)"/><path class="cls-2" d="M85.69-53.64a.43.43,0,0,1,0,.33c-.09-.06-.2-.15-.2-.26s.21-.17.22-.06Z" transform="translate(2 53.92)"/></g></svg>