<?xml version="1.0" encoding="utf-8"?>
<!-- Generator: Adobe Illustrator 20.0.0, SVG Export Plug-In . SVG Version: 6.00 Build 0)  -->
<svg version="1.1" id="Layer_1" xmlns="http://www.w3.org/2000/svg" xmlns:xlink="http://www.w3.org/1999/xlink" x="0px" y="0px"
	 viewBox="0 0 100 100" style="enable-background:new 0 0 100 100;" xml:space="preserve">
<style type="text/css">
	.st0{fill:#FFFFFF;stroke:#010101;stroke-width:2;stroke-miterlimit:10;}
	.st1{fill:#FBF9FB;stroke:#010101;stroke-width:2;stroke-miterlimit:10;}
	.st2{fill:#D3D3D3;stroke:#010101;stroke-width:2;stroke-miterlimit:10;}
	.st3{fill:#090909;stroke:#010101;stroke-width:2;stroke-miterlimit:10;}
	.st4{fill:#030303;stroke:#010101;stroke-width:2;stroke-miterlimit:10;}
	.st5{fill:#010101;}
	.st6{fill:#020202;}
	.st7{fill:#090909;}
	.st8{fill:#FAFCFE;}
	.st9{fill:none;stroke:#FAFCFE;stroke-width:4;stroke-miterlimit:10;}
</style>
<g>
	<g>
		<path class="st0" d="M38.1,27.5l-8.4,11c-0.6,0.8-1.5,1.5-2.6,2c-3.8,1.7-5.3,0.7-6.5-2.1L19,34.5c-1.4-3.3,1.2-7.2,6-8.5
			c0.1,0,0.2-0.1,0.4-0.1l7.7-1c0.5,0,3.5-0.2,4.7,0c0.4,0,0.6,0.3,0.7,0.6l0.1,0.9C38.5,26.7,38.4,27.2,38.1,27.5z"/>
		<g>
			<path class="st1" d="M65.5,61.1l-1.9,1.4c0,0-0.6,0-0.6,0v1.3c0,2.9-1.2,6.2-4.1,6.2h-1.4l-2.3,1.8C55,72,54.7,72,54.5,72.1
				c-2.3,1.7-5.4,1.6-7.6-0.1c-0.2-0.2-0.4,0-0.6-0.2L43.9,70h-1.3c-2.9,0-4.5-3.8-4.5-6.7v-1.3l-2.5-1c-0.4-0.4-0.8-0.8-1.3-1.1
				c0,0-2,10.6-0.1,13.3c2.6,3.6,16.5,4.3,16.5,4.3s13.9-0.7,16.5-4.3c2-2.7-0.1-13.5-0.1-13.5C66.5,60.2,66,60.6,65.5,61.1z"/>
			<path class="st0" d="M50,27.4c-11.8,0-21,7.2-21,16.1v4.8v6.1c0,2.4,1.9,4.4,4.1,5c1.1,0.3,2.4,1,3.2,1.8l1.7,1.5v1.2
				c0,2.9,2.2,6.2,5,6.2h1.3l2.3,1.8c0.2,0.2,0.4,0.2,0.6,0.3c2.2,1.7,5.3,1.5,7.5-0.1c0.2-0.2,0.4,0.1,0.6-0.1l2.3-1.9h1.4
				c2.8,0,3.9-3.3,3.9-6.2v-1.3c0,0,0.6,0,0.6,0l1.7-1.4c0.8-0.8,1.3-1.5,2.5-1.8c2.2-0.6,3.2-2.6,3.2-5v-6.1v-4.8
				C71,34.6,61.8,27.4,50,27.4z"/>
			<path class="st2" d="M64,60.1l-0.1-0.7c-0.2-1-0.9-1.9-1.9-2.2c-4.2-1.6-8-8-9.2-15.9c-0.5-3.7-0.4-7.2,0.2-10.2
				c0.4-1.8-0.9-3.3-2.7-3.3h0c-1.9,0-3.1,1.5-2.7,3.3c0.7,3,0.8,6.5,0.2,10.3c-1.1,7.9-4.8,14.1-9,15.8c-0.9,0.4-1.6,1.2-1.8,2.2
				l-0.1,0.7c-0.8,4.5,0.9,8.7,3.9,9.1c0.9,0.4,1.9,0.7,2.9,0.7c3.1,0,5.7-2.1,6.3-4.9c0.4-0.1,0.8-0.1,1.1,0
				c0.6,2.8,3.2,4.9,6.3,4.9c1.1,0,2.1-0.3,3-0.7C63.1,68.6,64.7,64.5,64,60.1z"/>
			<path class="st3" d="M55.9,56.9c0,2.9-2.3,7.8-5.2,7.8s-5.2-4.9-5.2-7.8"/>
			<circle class="st3" cx="42.4" cy="66" r="0.4"/>
			<circle class="st3" cx="42.4" cy="63.4" r="0.4"/>
			<circle class="st3" cx="45" cy="66" r="0.4"/>
			<circle class="st3" cx="58.9" cy="66" r="0.4"/>
			<circle class="st3" cx="58.9" cy="63.4" r="0.4"/>
			<circle class="st3" cx="56.3" cy="66" r="0.4"/>
			<path class="st0" d="M61.9,27.9l8.4,11c0.6,0.8,1.5,1.5,2.6,2c3.8,1.7,5.3,0.7,6.5-2.1l1.6-3.8c1.4-3.3-1.2-7.2-6-8.5
				c-0.1,0-0.2-0.1-0.4-0.1l-7.7-1c-0.5,0-3.5-0.2-4.7,0c-0.4,0-0.6,0.3-0.7,0.6l-0.1,0.9C61.5,27.1,61.6,27.5,61.9,27.9z"/>
		</g>
	</g>
	<path class="st0" d="M41.2,28.7l-2.4-2.5l-2.2,3.1c-0.4,0.5,0.1,1.2,0.7,1L41.2,28.7z"/>
	<path class="st0" d="M59.2,28.2l1.7-1.7l1.6,2.7c0.3,0.4-0.1,0.9-0.5,0.7L59.2,28.2z"/>
	<path class="st3" d="M65,41.6c-1.6,1.2-3.2,3.8-5.1,3.8c-1.8,0-3.3-1.3-3.3-2.8s1.5-2.8,3.3-2.8C61.8,39.7,66.4,40.5,65,41.6z"/>
	<path class="st4" d="M35.1,41.6c1.6,1.2,3.2,3.8,5.1,3.8s3.3-1.3,3.3-2.8s-1.5-2.8-3.3-2.8S33.7,40.5,35.1,41.6z"/>
	<g>
		<path class="st5" d="M69.1,27.6c0,0,0.6-0.3,1.4-0.4c0.8-0.1,1.9,0,3,0.3c1,0.3,2,0.8,2.7,1.4c0.7,0.5,1,1,1,1s-0.6,0.1-1.4,0
			c-0.8,0-1.8-0.2-2.8-0.5c-1-0.3-1.9-0.7-2.6-1.1C69.6,28,69.1,27.6,69.1,27.6z"/>
	</g>
	<g>
		<path class="st5" d="M30.3,27.8c0,0-0.6,0.4-1.5,0.7c-0.9,0.4-2,0.7-3.1,1.1c-1.1,0.4-2.1,0.8-3,1.1c-0.4,0.2-0.8,0.3-1.1,0.4
			c-0.3,0.1-0.5,0.1-0.5,0.1s0.1-0.2,0.2-0.4c0.1-0.3,0.3-0.6,0.7-1c0.3-0.4,0.8-0.8,1.3-1.2c0.5-0.4,1.1-0.7,1.8-0.9
			c1.3-0.4,2.6-0.5,3.6-0.4C29.6,27.5,30.3,27.8,30.3,27.8z"/>
	</g>
	<g>
		<path class="st5" d="M31.2,47.3c0,0,0.3,0.8,0.6,1.9c0.1,0.6,0.2,1.3,0.3,2c0.1,0.7,0.1,1.5,0.2,2.1c0,0.3,0.2,0.6,0.2,0.8
			c0.1,0.3,0.3,0.5,0.5,0.8c0.4,0.5,0.8,1,1.2,1.4c0.4,0.4,0.7,0.8,1,1c0.2,0.3,0.4,0.4,0.4,0.4s-0.8-0.1-2-0.5
			c-0.6-0.2-1.2-0.6-1.8-1.1c-0.3-0.3-0.6-0.6-0.9-1c-0.3-0.5-0.4-0.9-0.5-1.4c-0.1-0.9-0.1-1.7,0-2.4c0.1-0.7,0.2-1.4,0.3-2
			C30.8,48.1,31.2,47.3,31.2,47.3z"/>
	</g>
	<path class="st6" d="M32.1,45.4c0,0.4-0.2,0.7-0.5,0.7S31,45.7,31,45.4s0.2-0.9,0.5-0.9S32.1,45,32.1,45.4z"/>
	<g>
		<path class="st7" d="M55.7,30.4l2.1,0.5c3.2,1,4.3,2.5,6,3.6"/>
		<path class="st5" d="M55.7,30.4c0,0,0.6-0.2,1.5-0.2c0.2,0,0.5,0,0.7,0c0.4,0.1,0.5,0.1,0.8,0.1c0.6,0.1,1.2,0.3,1.7,0.6
			c1.1,0.6,2,1.5,2.5,2.2c0.5,0.7,0.8,1.3,0.8,1.3s-0.7,0-1.5-0.4c-0.9-0.3-1.8-0.9-2.7-1.4c-0.5-0.2-0.9-0.5-1.4-0.7
			c-0.2-0.1-0.5-0.3-0.6-0.4c-0.2-0.1-0.4-0.2-0.6-0.3C56.2,30.9,55.7,30.4,55.7,30.4z"/>
	</g>
	<ellipse class="st8" cx="40.5" cy="40.8" rx="1.1" ry="0.4"/>
	<ellipse class="st8" cx="59.6" cy="40.8" rx="1.1" ry="0.4"/>
</g>
<circle class="st9" cx="50" cy="50" r="46.7"/>
</svg>
